  0
SECTION
  2
HEADER
  9
$ACADVER
  1
AC1015
  9
$ACADMAINTVER
 70
     6
  9
$DWGCODEPAGE
  3
ANSI_1252
  9
$INSBASE
 10
0.0
 20
0.0
 30
0.0
  9
$EXTMIN
 10
-21.3461639238
 20
-160.0
 30
0.0
  9
$EXTMAX
 10
303.6538360762
 20
160.0
 30
0.0
  9
$LIMMIN
 10
0.0
 20
0.0
  9
$LIMMAX
 10
420.0
 20
297.0
  9
$ORTHOMODE
 70
     0
  9
$REGENMODE
 70
     1
  9
$FILLMODE
 70
     1
  9
$QTEXTMODE
 70
     0
  9
$MIRRTEXT
 70
     1
  9
$LTSCALE
 40
1.0
  9
$ATTMODE
 70
     1
  9
$TEXTSIZE
 40
3.175
  9
$TRACEWID
 40
1.0
  9
$TEXTSTYLE
  7
Standard
  9
$CLAYER
  8
0
  9
$CELTYPE
  6
ByLayer
  9
$CECOLOR
 62
   256
  9
$CELTSCALE
 40
1.0
  9
$DISPSILH
 70
     0
  9
$DIMSCALE
 40
1.0
  9
$DIMASZ
 40
3.302
  9
$DIMEXO
 40
0.0
  9
$DIMDLI
 40
3.75
  9
$DIMRND
 40
0.0
  9
$DIMDLE
 40
0.0
  9
$DIMEXE
 40
3.175
  9
$DIMTP
 40
0.0
  9
$DIMTM
 40
0.0
  9
$DIMTXT
 40
3.175
  9
$DIMCEN
 40
2.5
  9
$DIMTSZ
 40
0.0
  9
$DIMTOL
 70
     0
  9
$DIMLIM
 70
     0
  9
$DIMTIH
 70
     1
  9
$DIMTOH
 70
     1
  9
$DIMSE1
 70
     0
  9
$DIMSE2
 70
     0
  9
$DIMTAD
 70
     0
  9
$DIMZIN
 70
     1
  9
$DIMBLK
  1

  9
$DIMASO
 70
     1
  9
$DIMSHO
 70
     1
  9
$DIMPOST
  1

  9
$DIMAPOST
  1

  9
$DIMALT
 70
     0
  9
$DIMALTD
 70
     3
  9
$DIMALTF
 40
0.0393700787
  9
$DIMLFAC
 40
1.0
  9
$DIMTOFL
 70
     1
  9
$DIMTVP
 40
0.0
  9
$DIMTIX
 70
     0
  9
$DIMSOXD
 70
     0
  9
$DIMSAH
 70
     0
  9
$DIMBLK1
  1

  9
$DIMBLK2
  1

  9
$DIMSTYLE
  2
ISO-25
  9
$DIMCLRD
 70
     0
  9
$DIMCLRE
 70
     0
  9
$DIMCLRT
 70
     0
  9
$DIMTFAC
 40
1.0
  9
$DIMGAP
 40
1.524
  9
$DIMJUST
 70
     0
  9
$DIMSD1
 70
     0
  9
$DIMSD2
 70
     0
  9
$DIMTOLJ
 70
     0
  9
$DIMTZIN
 70
     1
  9
$DIMALTZ
 70
     0
  9
$DIMALTTZ
 70
     0
  9
$DIMUPT
 70
     0
  9
$DIMDEC
 70
     2
  9
$DIMTDEC
 70
     2
  9
$DIMALTU
 70
     2
  9
$DIMALTTD
 70
     3
  9
$DIMTXSTY
  7
Standard
  9
$DIMAUNIT
 70
     0
  9
$DIMADEC
 70
     2
  9
$DIMALTRND
 40
0.0
  9
$DIMAZIN
 70
     0
  9
$DIMDSEP
 70
    44
  9
$DIMATFIT
 70
     3
  9
$DIMFRAC
 70
     0
  9
$DIMLDRBLK
  1

  9
$DIMLUNIT
 70
     2
  9
$DIMLWD
 70
    -2
  9
$DIMLWE
 70
    -2
  9
$DIMTMOVE
 70
     0
  9
$LUNITS
 70
     2
  9
$LUPREC
 70
     2
  9
$SKETCHINC
 40
1.0
  9
$FILLETRAD
 40
10.0
  9
$AUNITS
 70
     0
  9
$AUPREC
 70
     2
  9
$MENU
  1
.
  9
$ELEVATION
 40
0.0
  9
$PELEVATION
 40
0.0
  9
$THICKNESS
 40
0.0
  9
$LIMCHECK
 70
     0
  9
$CHAMFERA
 40
0.0
  9
$CHAMFERB
 40
0.0
  9
$CHAMFERC
 40
0.0
  9
$CHAMFERD
 40
0.0
  9
$SKPOLY
 70
     0
  9
$TDCREATE
 40
2461041.743340417
  9
$TDUCREATE
 40
2461041.51417375
  9
$TDUPDATE
 40
2461041.743426574
  9
$TDUUPDATE
 40
2461041.514259907
  9
$TDINDWG
 40
0.0000000116
  9
$TDUSRTIMER
 40
0.0000000116
  9
$USRTIMER
 70
     1
  9
$ANGBASE
 50
0.0
  9
$ANGDIR
 70
     0
  9
$PDMODE
 70
     0
  9
$PDSIZE
 40
-1.0
  9
$PLINEWID
 40
0.0
  9
$SPLFRAME
 70
     0
  9
$SPLINETYPE
 70
     6
  9
$SPLINESEGS
 70
     8
  9
$HANDSEED
  5
149
  9
$SURFTAB1
 70
     6
  9
$SURFTAB2
 70
     6
  9
$SURFTYPE
 70
     6
  9
$SURFU
 70
     6
  9
$SURFV
 70
     6
  9
$UCSBASE
  2

  9
$UCSNAME
  2

  9
$UCSORG
 10
0.0
 20
0.0
 30
0.0
  9
$UCSXDIR
 10
1.0
 20
0.0
 30
0.0
  9
$UCSYDIR
 10
0.0
 20
1.0
 30
0.0
  9
$UCSORTHOREF
  2

  9
$UCSORTHOVIEW
 70
     0
  9
$UCSORGTOP
 10
0.0
 20
0.0
 30
0.0
  9
$UCSORGBOTTOM
 10
0.0
 20
0.0
 30
0.0
  9
$UCSORGLEFT
 10
0.0
 20
0.0
 30
0.0
  9
$UCSORGRIGHT
 10
0.0
 20
0.0
 30
0.0
  9
$UCSORGFRONT
 10
0.0
 20
0.0
 30
0.0
  9
$UCSORGBACK
 10
0.0
 20
0.0
 30
0.0
  9
$PUCSBASE
  2

  9
$PUCSNAME
  2

  9
$PUCSORG
 10
0.0
 20
0.0
 30
0.0
  9
$PUCSXDIR
 10
1.0
 20
0.0
 30
0.0
  9
$PUCSYDIR
 10
0.0
 20
1.0
 30
0.0
  9
$PUCSORTHOREF
  2

  9
$PUCSORTHOVIEW
 70
     0
  9
$PUCSORGTOP
 10
0.0
 20
0.0
 30
0.0
  9
$PUCSORGBOTTOM
 10
0.0
 20
0.0
 30
0.0
  9
$PUCSORGLEFT
 10
0.0
 20
0.0
 30
0.0
  9
$PUCSORGRIGHT
 10
0.0
 20
0.0
 30
0.0
  9
$PUCSORGFRONT
 10
0.0
 20
0.0
 30
0.0
  9
$PUCSORGBACK
 10
0.0
 20
0.0
 30
0.0
  9
$USERI1
 70
     0
  9
$USERI2
 70
     0
  9
$USERI3
 70
     0
  9
$USERI4
 70
     0
  9
$USERI5
 70
     0
  9
$USERR1
 40
0.0
  9
$USERR2
 40
0.0
  9
$USERR3
 40
0.0
  9
$USERR4
 40
0.0
  9
$USERR5
 40
0.0
  9
$WORLDVIEW
 70
     1
  9
$SHADEDGE
 70
     3
  9
$SHADEDIF
 70
    70
  9
$TILEMODE
 70
     1
  9
$MAXACTVP
 70
    64
  9
$PINSBASE
 10
0.0
 20
0.0
 30
0.0
  9
$PLIMCHECK
 70
     0
  9
$PEXTMIN
 10
1.0000000000E+20
 20
1.0000000000E+20
 30
1.0000000000E+20
  9
$PEXTMAX
 10
-1.0000000000E+20
 20
-1.0000000000E+20
 30
-1.0000000000E+20
  9
$PLIMMIN
 10
0.0
 20
0.0
  9
$PLIMMAX
 10
420.0
 20
297.0
  9
$UNITMODE
 70
     0
  9
$VISRETAIN
 70
     1
  9
$PLINEGEN
 70
     0
  9
$PSLTSCALE
 70
     1
  9
$TREEDEPTH
 70
  3020
  9
$CMLSTYLE
  2
Standard
  9
$CMLJUST
 70
     0
  9
$CMLSCALE
 40
20.0
  9
$PROXYGRAPHICS
 70
     1
  9
$MEASUREMENT
 70
     1
  9
$CELWEIGHT
370
    -1
  9
$ENDCAPS
280
     0
  9
$JOINSTYLE
280
     0
  9
$LWDISPLAY
290
     1
  9
$INSUNITS
 70
     4
  9
$HYPERLINKBASE
  1

  9
$STYLESHEET
  1

  9
$XEDIT
290
     1
  9
$CEPSNTYPE
380
     0
  9
$PSTYLEMODE
290
     1
  9
$FINGERPRINTGUID
  2
{5c16483b-a272-4729-9976-48bcbe1c0c89}
  9
$VERSIONGUID
  2
{FAEB1C32-E019-11D5-929B-00C0DF256EC4}
  9
$EXTNAMES
290
     1
  9
$PSVPSCALE
 40
0.0
  9
$OLESTARTUP
290
     0
  0
ENDSEC
  0
SECTION
  2
CLASSES
  0
CLASS
  1
ACDBDICTIONARYWDFLT
  2
AcDbDictionaryWithDefault
  3
ObjectDBX Classes
 90
        0
280
     0
281
     0
  0
CLASS
  1
VISUALSTYLE
  2
AcDbVisualStyle
  3
ObjectDBX Classes
 90
     4095
280
     0
281
     0
  0
CLASS
  1
MATERIAL
  2
AcDbMaterial
  3
ObjectDBX Classes
 90
     1153
280
     0
281
     0
  0
CLASS
  1
SCALE
  2
AcDbScale
  3
ObjectDBX Classes
 90
     1153
280
     0
281
     0
  0
CLASS
  1
TABLESTYLE
  2
AcDbTableStyle
  3
ObjectDBX Classes
 90
     4095
280
     0
281
     0
  0
CLASS
  1
MLEADERSTYLE
  2
AcDbMLeaderStyle
  3
ACDB_MLEADERSTYLE_CLASS
 90
     4095
280
     0
281
     0
  0
CLASS
  1
SUN
  2
AcDbSun
  3
SCENEOE
 90
     1153
280
     0
281
     0
  0
CLASS
  1
ACDBPLACEHOLDER
  2
AcDbPlaceHolder
  3
ObjectDBX Classes
 90
        0
280
     0
281
     0
  0
CLASS
  1
LAYOUT
  2
AcDbLayout
  3
ObjectDBX Classes
 90
        0
280
     0
281
     0
  0
ENDSEC
  0
SECTION
  2
TABLES
  0
TABLE
  2
VPORT
  5
8
330
0
100
AcDbSymbolTable
 70
     1
  0
VPORT
  5
29
330
8
100
AcDbSymbolTableRecord
100
AcDbViewportTableRecord
  2
*Active
 70
     0
 10
0.0
 20
0.0
 11
1.0
 21
1.0
 12
141.1538360762
 22
0.0
 13
0.0
 23
0.0
 14
10.0
 24
10.0
 15
10.0
 25
10.0
 16
0.0
 26
0.0
 36
1.0
 17
0.0
 27
0.0
 37
0.0
 40
326.4
 41
1.015625
 42
50.0
 43
0.0
 44
0.0
 50
0.0
 51
0.0
 71
     0
 72
   100
 73
     1
 74
     3
 75
     0
 76
     0
 77
     0
 78
     0
281
     0
 65
     1
110
0.0
120
0.0
130
0.0
111
1.0
121
0.0
131
0.0
112
0.0
122
1.0
132
0.0
 79
     0
146
0.0
  0
ENDTAB
  0
TABLE
  2
LTYPE
  5
5
330
0
100
AcDbSymbolTable
 70
     6
  0
LTYPE
  5
14
330
5
100
AcDbSymbolTableRecord
100
AcDbLinetypeTableRecord
  2
ByBlock
 70
     0
  3

 72
    65
 73
     0
 40
0.0
  0
LTYPE
  5
15
330
5
100
AcDbSymbolTableRecord
100
AcDbLinetypeTableRecord
  2
ByLayer
 70
     0
  3

 72
    65
 73
     0
 40
0.0
  0
LTYPE
  5
16
330
5
100
AcDbSymbolTableRecord
100
AcDbLinetypeTableRecord
  2
Continuous
 70
     0
  3
Solid line
 72
    65
 73
     0
 40
0.0
  0
LTYPE
  5
6E
330
5
100
AcDbSymbolTableRecord
100
AcDbLinetypeTableRecord
  2
HIDDEN
 70
     0
  3
Hidden __ __ __ __ __ __ __ __ __ __ __ __ __ __
 72
    65
 73
     2
 40
1.905
 49
1.27
 74
     0
 49
-0.635
 74
     0
  0
LTYPE
  5
6F
330
5
100
AcDbSymbolTableRecord
100
AcDbLinetypeTableRecord
  2
PHANTOM
 70
     0
  3
Phantom ______  __  __  ______  __  __  ______
 72
    65
 73
     6
 40
12.7
 49
6.35
 74
     0
 49
-1.27
 74
     0
 49
1.27
 74
     0
 49
-1.27
 74
     0
 49
1.27
 74
     0
 49
-1.27
 74
     0
  0
LTYPE
  5
70
330
5
100
AcDbSymbolTableRecord
100
AcDbLinetypeTableRecord
  2
CENTER
 70
     0
  3
Center ____ _ ____ _ ____ _ ____ _ ____ _ ____
 72
    65
 73
     4
 40
10.16
 49
6.35
 74
     0
 49
-1.27
 74
     0
 49
1.27
 74
     0
 49
-1.27
 74
     0
  0
LTYPE
  5
71
330
5
100
AcDbSymbolTableRecord
100
AcDbLinetypeTableRecord
  2
CENTERX2
 70
     0
  3
Center (2x) ________  __  ________  __  _____
 72
    65
 73
     4
 40
20.32
 49
12.7
 74
     0
 49
-2.54
 74
     0
 49
2.54
 74
     0
 49
-2.54
 74
     0
  0
LTYPE
  5
72
330
5
100
AcDbSymbolTableRecord
100
AcDbLinetypeTableRecord
  2
DOT2
 70
     0
  3
Dot (.5x) ........................................
 72
    65
 73
     2
 40
0.635
 49
0.0
 74
     0
 49
-0.635
 74
     0
  0
ENDTAB
  0
TABLE
  2
LAYER
  5
2
330
0
100
AcDbSymbolTable
 70
     1
  0
LAYER
  5
10
330
2
100
AcDbSymbolTableRecord
100
AcDbLayerTableRecord
  2
0
 70
     0
 62
     7
  6
Continuous
370
    -3
390
F
  0
ENDTAB
  0
TABLE
  2
STYLE
  5
3
330
0
100
AcDbSymbolTable
 70
     1
  0
STYLE
  5
11
330
3
100
AcDbSymbolTableRecord
100
AcDbTextStyleTableRecord
  2
Standard
 70
     0
 40
0.0
 41
1.0
 50
0.0
 71
     0
 42
3.175
  3
txt
  4

  0
ENDTAB
  0
TABLE
  2
VIEW
  5
6
330
0
100
AcDbSymbolTable
 70
     0
  0
ENDTAB
  0
TABLE
  2
UCS
  5
7
330
0
100
AcDbSymbolTable
 70
     0
  0
ENDTAB
  0
TABLE
  2
APPID
  5
9
330
0
100
AcDbSymbolTable
 70
     1
  0
APPID
  5
12
330
9
100
AcDbSymbolTableRecord
100
AcDbRegAppTableRecord
  2
ACAD
 70
     0
  0
ENDTAB
  0
TABLE
  2
DIMSTYLE
  5
A
330
0
100
AcDbSymbolTable
 70
     1
100
AcDbDimStyleTable
  0
DIMSTYLE
105
27
330
A
100
AcDbSymbolTableRecord
100
AcDbDimStyleTableRecord
  2
ISO-25
 70
     0
 41
2.5
 42
0.625
 43
3.75
 44
1.25
 73
     0
 74
     0
 77
     1
 78
     8
140
2.5
141
2.5
143
0.0393700787
147
0.625
171
     3
172
     1
178
     0
271
     2
272
     2
274
     3
278
    44
283
     0
284
     8
340
11
  0
ENDTAB
  0
TABLE
  2
BLOCK_RECORD
  5
1
330
0
100
AcDbSymbolTable
 70
     1
  0
BLOCK_RECORD
  5
1F
330
1
100
AcDbSymbolTableRecord
100
AcDbBlockTableRecord
  2
*Model_Space
340
22
  0
BLOCK_RECORD
  5
1B
330
1
100
AcDbSymbolTableRecord
100
AcDbBlockTableRecord
  2
*Paper_Space
340
1E
  0
BLOCK_RECORD
  5
23
330
1
100
AcDbSymbolTableRecord
100
AcDbBlockTableRecord
  2
*Paper_Space0
340
26
  0
ENDTAB
  0
ENDSEC
  0
SECTION
  2
BLOCKS
  0
BLOCK
  5
20
330
1F
100
AcDbEntity
  8
0
100
AcDbBlockBegin
  2
*Model_Space
 70
     0
 10
0.0
 20
0.0
 30
0.0
  3
*Model_Space
  1

  0
ENDBLK
  5
21
330
1F
100
AcDbEntity
  8
0
100
AcDbBlockEnd
  0
BLOCK
  5
1C
330
1B
100
AcDbEntity
 67
     1
  8
0
100
AcDbBlockBegin
  2
*Paper_Space
 70
     0
 10
0.0
 20
0.0
 30
0.0
  3
*Paper_Space
  1

  0
ENDBLK
  5
1D
330
1B
100
AcDbEntity
 67
     1
  8
0
100
AcDbBlockEnd
  0
BLOCK
  5
24
330
23
100
AcDbEntity
  8
0
100
AcDbBlockBegin
  2
*Paper_Space0
 70
     0
 10
0.0
 20
0.0
 30
0.0
  3
*Paper_Space0
  1

  0
ENDBLK
  5
25
330
23
100
AcDbEntity
  8
0
100
AcDbBlockEnd
  0
ENDSEC
  0
SECTION
  2
ENTITIES
  0
SPLINE
  5
73
330
1F
100
AcDbEntity
  8
0
  6
Continuous
 62
     7
370
    25
100
AcDbSpline
210
0.0
220
0.0
230
1.0
 70
     8
 71
     3
 72
    15
 73
    11
 74
     0
 42
0.00000001
 43
0.00000001
 40
0.0
 40
0.0
 40
0.0
 40
0.0
 40
0.1642896338889934
 40
0.3174067176726146
 40
0.4588447774378857
 40
0.5887462863853753
 40
0.7078305764569907
 40
0.8157695626207426
 40
0.9128796815536484
 40
1.0
 40
1.0
 40
1.0
 40
1.0
 10
209.9654717065623
 20
22.01129807692307
 30
0.0
 10
209.964270565917
 20
21.84401426840437
 30
0.0
 10
209.961949968441
 20
21.52082282092954
 30
0.0
 10
209.9471520784277
 20
21.05379646134023
 30
0.0
 10
209.921238905987
 20
20.62229411800056
 30
0.0
 10
209.882765220892
 20
20.22656083486148
 30
0.0
 10
209.8365860168218
 20
19.86596083509921
 30
0.0
 10
209.7778575987495
 20
19.54107166074594
 30
0.0
 10
209.7087890022521
 20
19.25136680453183
 30
0.0
 10
209.6498796831526
 20
19.07319674679722
 30
0.0
 10
209.6220221873316
 20
18.9889423076923
 30
0.0
  0
SPLINE
  5
77
330
1F
100
AcDbEntity
  8
0
  6
Continuous
 62
     7
370
    25
100
AcDbSpline
210
0.0
220
0.0
230
1.0
 70
     8
 71
     3
 72
    31
 73
    27
 74
     0
 42
0.00000001
 43
0.00000001
 40
0.0
 40
0.0
 40
0.0
 40
0.0
 40
0.0460757643870096
 40
0.0907971062038695
 40
0.1342809348374215
 40
0.1770054887460683
 40
0.2187993748910672
 40
0.2601346906271975
 40
0.3009660822967559
 40
0.341495782560211
 40
0.3814610401778468
 40
0.420133600271405
 40
0.4579315553760246
 40
0.4947593611409757
 40
0.5310317652143431
 40
0.5669599078259739
 40
0.6025308753986003
 40
0.6381410290864127
 40
0.6748879574752162
 40
0.7134979574413838
 40
0.7544680165851969
 40
0.7978369434282098
 40
0.8440061099520658
 40
0.8930829842280213
 40
0.9449692212063225
 40
1.0
 40
1.0
 40
1.0
 40
1.0
 10
205.0827643748316
 20
16.11923076923076
 30
0.0
 10
204.9650324024955
 20
16.12094361268391
 30
0.0
 10
204.733029254246
 20
16.12431894960985
 30
0.0
 10
204.3911008322538
 20
16.15459007738335
 30
0.0
 10
204.0593425811559
 20
16.19867310963781
 30
0.0
 10
203.7392115456989
 20
16.26661030691859
 30
0.0
 10
203.4285511797552
 20
16.35008874052755
 30
0.0
 10
203.1288367698129
 20
16.45312686912375
 30
0.0
 10
202.8398486286295
 20
16.57523702762247
 30
0.0
 10
202.563940770079
 20
16.71690933544174
 30
0.0
 10
202.3015696291018
 20
16.87182171472966
 30
0.0
 10
202.0572501543868
 20
17.04167407469626
 30
0.0
 10
201.8263357099398
 20
17.21671971419248
 30
0.0
 10
201.6192417425135
 20
17.41045577279448
 30
0.0
 10
201.4241238615136
 20
17.60953168351195
 30
0.0
 10
201.2515246435886
 20
17.82450405660423
 30
0.0
 10
201.0939258025275
 20
18.04836922136949
 30
0.0
 10
200.9524776942432
 20
18.28543917124343
 30
0.0
 10
200.8297557933901
 20
18.54139611103251
 30
0.0
 10
200.7246221222716
 20
18.81973351501895
 30
0.0
 10
200.6380550984273
 20
19.12194207535967
 30
0.0
 10
200.5657147063978
 20
19.44755857913868
 30
0.0
 10
200.5083630200893
 20
19.79722105890372
 30
0.0
 10
200.469916507468
 20
20.17125025302321
 30
0.0
 10
200.4439196131114
 20
20.56907795948518
 30
0.0
 10
200.4416433247564
 20
20.84225291372496
 30
0.0
 10
200.4404717065623
 20
20.98285757211537
 30
0.0
  0
SPLINE
  5
78
330
1F
100
AcDbEntity
  8
0
  6
Continuous
 62
     7
370
    25
100
AcDbSpline
210
0.0
220
0.0
230
1.0
 70
     8
 71
     3
 72
    19
 73
    15
 74
     0
 42
0.00000001
 43
0.00000001
 40
0.0
 40
0.0
 40
0.0
 40
0.0
 40
0.096972310381518
 40
0.187773438962868
 40
0.2723961390136946
 40
0.3513209973752905
 40
0.4243347744514695
 40
0.4919087840005287
 40
0.5542332197968054
 40
0.6112676582441563
 40
0.7163478449915542
 40
0.8145400858216217
 40
0.9084954561491884
 40
1.0
 40
1.0
 40
1.0
 40
1.0
 10
205.8478935815623
 20
-21.81286057692309
 30
0.0
 10
205.7726695959306
 20
-21.9162365267097
 30
0.0
 10
205.6270087735887
 20
-22.11640972585401
 30
0.0
 10
205.4081632443712
 20
-22.40122785404179
 30
0.0
 10
205.194128959894
 20
-22.65947457464278
 30
0.0
 10
204.9862727577253
 20
-22.89205657864444
 30
0.0
 10
204.7861713046226
 20
-23.10127159375553
 30
0.0
 10
204.5914172210097
 20
-23.28479853359192
 30
0.0
 10
204.4034057696388
 20
-23.44450742082246
 30
0.0
 10
204.1623618315078
 20
-23.61644515106046
 30
0.0
 10
203.8663218807327
 20
-23.79213464561262
 30
0.0
 10
203.5036146744058
 20
-23.94301474796515
 30
0.0
 10
203.1394975450534
 20
-24.03815139353792
 30
0.0
 10
202.894768082932
 20
-24.05059244624918
 30
0.0
 10
202.774020384447
 20
-24.05673076923079
 30
0.0
  0
SPLINE
  5
79
330
1F
100
AcDbEntity
  8
0
  6
Continuous
 62
     7
370
    25
100
AcDbSpline
210
0.0
220
0.0
230
1.0
 70
     8
 71
     3
 72
    15
 73
    11
 74
     0
 42
0.00000001
 43
0.00000001
 40
0.0
 40
0.0
 40
0.0
 40
0.0
 40
0.0525942815291438
 40
0.1249519739750377
 40
0.2180938989285937
 40
0.3335024107325188
 40
0.4687891785044461
 40
0.6249375859646011
 40
0.8016830479282328
 40
1.0
 40
1.0
 40
1.0
 40
1.0
 10
206.7961958652162
 20
-20.53255709134616
 30
0.0
 10
206.7775893878174
 20
-20.5534069691128
 30
0.0
 10
206.7333846565785
 20
-20.60294150610683
 30
0.0
 10
206.6610156642551
 20
-20.69349956115551
 30
0.0
 10
206.5717452625088
 20
-20.813086747767
 30
0.0
 10
206.4612897798165
 20
-20.9585803095411
 30
0.0
 10
206.3331609436262
 20
-21.13266291538404
 30
0.0
 10
206.1889970419517
 20
-21.33535370746327
 30
0.0
 10
206.0241180427973
 20
-21.5643933075355
 30
0.0
 10
205.908845021566
 20
-21.72692223580509
 30
0.0
 10
205.8478935815623
 20
-21.81286057692309
 30
0.0
  0
SPLINE
  5
7A
330
1F
100
AcDbEntity
  8
0
  6
Continuous
 62
     7
370
    25
100
AcDbSpline
210
0.0
220
0.0
230
1.0
 70
     8
 71
     3
 72
    15
 73
    11
 74
     0
 42
0.00000001
 43
0.00000001
 40
0.0
 40
0.0
 40
0.0
 40
0.0
 40
0.1073157910028233
 40
0.2148070644363552
 40
0.3233866114385787
 40
0.4345959004816644
 40
0.5532850316073509
 40
0.6859835143010655
 40
0.8342087543254969
 40
0.9999999999999999
 40
0.9999999999999999
 40
0.9999999999999999
 40
0.9999999999999999
 10
208.0268899757931
 20
-19.9048076923077
 30
0.0
 10
207.9758721768307
 20
-19.90592736446651
 30
0.0
 10
207.8737531547678
 20
-19.9081685396684
 30
0.0
 10
207.7224835333852
 20
-19.93731741670733
 30
0.0
 10
207.5725566800727
 20
-19.97864964824679
 30
0.0
 10
207.4233059315303
 20
-20.039141914525
 30
0.0
 10
207.271220049503
 20
-20.12062228055087
 30
0.0
 10
207.1167096476274
 20
-20.2314110840882
 30
0.0
 10
206.9558737097766
 20
-20.37001243817805
 30
0.0
 10
206.8513704425006
 20
-20.47639192608438
 30
0.0
 10
206.7961958652162
 20
-20.53255709134616
 30
0.0
  0
SPLINE
  5
7B
330
1F
100
AcDbEntity
  8
0
  6
Continuous
 62
     7
370
    25
100
AcDbSpline
210
0.0
220
0.0
230
1.0
 70
     8
 71
     3
 72
    15
 73
    11
 74
     0
 42
0.00000001
 43
0.00000001
 40
0.0
 40
0.0
 40
0.0
 40
0.0
 40
0.143073083730362
 40
0.2759029640930075
 40
0.4023708562739956
 40
0.5284136450935978
 40
0.6503563791869474
 40
0.7658950861246958
 40
0.8807741308440197
 40
1.0
 40
1.0
 40
1.0
 40
1.0
 10
209.23277939887
 20
-21.30150240384616
 30
0.0
 10
209.229481844001
 20
-21.20310501072842
 30
0.0
 10
209.2231228200748
 20
-21.01335490740797
 30
0.0
 10
209.1536720029597
 20
-20.74396005057237
 30
0.0
 10
209.0443199402702
 20
-20.50149729736453
 30
0.0
 10
208.8910627498812
 20
-20.29316495960445
 30
0.0
 10
208.7094863340739
 20
-20.11970932922301
 30
0.0
 10
208.5005381641914
 20
-19.99423661644141
 30
0.0
 10
208.269808911389
 20
-19.91871652576761
 30
0.0
 10
208.1088591180863
 20
-19.90950100757443
 30
0.0
 10
208.0268899757931
 20
-19.9048076923077
 30
0.0
  0
SPLINE
  5
7C
330
1F
100
AcDbEntity
  8
0
  6
Continuous
 62
     7
370
    25
100
AcDbSpline
210
0.0
220
0.0
230
1.0
 70
     8
 71
     3
 72
    19
 73
    15
 74
     0
 42
0.00000001
 43
0.00000001
 40
0.0
 40
0.0
 40
0.0
 40
0.0
 40
0.098472320498362
 40
0.1896346655866719
 40
0.2741921350564133
 40
0.3521934953791175
 40
0.4232112914702715
 40
0.4885652819691462
 40
0.5484894403508269
 40
0.601457812191429
 40
0.7012186582813277
 40
0.8003937125553002
 40
0.8985421214042072
 40
1.0
 40
1.0
 40
1.0
 40
1.0
 10
208.0116255527162
 20
-23.16185396634616
 30
0.0
 10
208.0717383476089
 20
-23.11519253636434
 30
0.0
 10
208.187501535673
 20
-23.02533353207138
 30
0.0
 10
208.3496205937713
 20
-22.88890970717977
 30
0.0
 10
208.4977112312561
 20
-22.76032591075421
 30
0.0
 10
208.6263396521689
 20
-22.63364224350408
 30
0.0
 10
208.7425512711077
 20
-22.51554983395219
 30
0.0
 10
208.8420433657578
 20
-22.40093046099376
 30
0.0
 10
208.9258056276322
 20
-22.29143831090824
 30
0.0
 10
209.0151508116815
 20
-22.15340432880153
 30
0.0
 10
209.1042792439151
 20
-21.97954433487063
 30
0.0
 10
209.1780928026008
 20
-21.76151503645645
 30
0.0
 10
209.2240468856991
 20
-21.53428912679016
 30
0.0
 10
209.2298365635509
 20
-21.37995095315637
 30
0.0
 10
209.23277939887
 20
-21.30150240384616
 30
0.0
  0
SPLINE
  5
7E
330
1F
100
AcDbEntity
  8
0
  6
Continuous
 62
     7
370
    25
100
AcDbSpline
210
0.0
220
0.0
230
1.0
 70
     8
 71
     3
 72
    19
 73
    15
 74
     0
 42
0.00000001
 43
0.00000001
 40
0.0
 40
0.0
 40
0.0
 40
0.0
 40
0.1072351343401466
 40
0.2126600942152344
 40
0.3188156149304536
 40
0.4267810491390351
 40
0.4836347072414268
 40
0.5435938840545852
 40
0.6082991205148308
 40
0.6771197297378433
 40
0.7506802072331153
 40
0.8287096887005749
 40
0.9121884361798694
 40
1.0
 40
1.0
 40
1.0
 40
1.0
 10
210.2097024757931
 20
-21.39690504807693
 30
0.0
 10
210.2059036241068
 20
-21.50916465228483
 30
0.0
 10
210.1983700469588
 20
-21.73178887105711
 30
0.0
 10
210.1305220675937
 20
-22.05987354185057
 30
0.0
 10
210.0209260996363
 20
-22.37635873383457
 30
0.0
 10
209.8946981270551
 20
-22.63111380577874
 30
0.0
 10
209.7691915787017
 20
-22.83015127062024
 30
0.0
 10
209.6548294777317
 20
-22.98193014833014
 30
0.0
 10
209.5231824960064
 20
-23.13573913503326
 30
0.0
 10
209.3738862611059
 20
-23.29281446770419
 30
0.0
 10
209.2055749565677
 20
-23.45049590182418
 30
0.0
 10
209.01940009127
 20
-23.61112399116519
 30
0.0
 10
208.8164997678599
 20
-23.77507447135061
 30
0.0
 10
208.6716530882711
 20
-23.88054577558379
 30
0.0
 10
208.5973977882931
 20
-23.93461538461539
 30
0.0
  0
SPLINE
  5
7F
330
1F
100
AcDbEntity
  8
0
  6
Continuous
 62
     7
370
    25
100
AcDbSpline
210
0.0
220
0.0
230
1.0
 70
     8
 71
     3
 72
    19
 73
    15
 74
     0
 42
0.00000001
 43
0.00000001
 40
0.0
 40
0.0
 40
0.0
 40
0.0
 40
0.0837951576321019
 40
0.1657992526891481
 40
0.2463087758881702
 40
0.3277386355213773
 40
0.4087822589416349
 40
0.4897099982146169
 40
0.5713803279196819
 40
0.6559873054484077
 40
0.7414934539531882
 40
0.8265264994117069
 40
0.9119785710628789
 40
1.0
 40
1.0
 40
1.0
 40
1.0
 10
207.9868208652162
 20
-19.05000000000001
 30
0.0
 10
208.0876031893474
 20
-19.05353653870211
 30
0.0
 10
208.2870136862951
 20
-19.06053402507821
 30
0.0
 10
208.5781680280376
 20
-19.12019623392773
 30
0.0
 10
208.8569909776243
 20
-19.21326533710959
 30
0.0
 10
209.1173409157776
 20
-19.34787050910089
 30
0.0
 10
209.3586090112052
 20
-19.51429234252653
 30
0.0
 10
209.5771090817809
 20
-19.71097680753511
 30
0.0
 10
209.7623592546142
 20
-19.94449631709745
 30
0.0
 10
209.9223388841065
 20
-20.20214099048753
 30
0.0
 10
210.0486494912909
 20
-20.48233300890012
 30
0.0
 10
210.1444372337565
 20
-20.77541449120317
 30
0.0
 10
210.1979884475064
 20
-21.08267061065633
 30
0.0
 10
210.2057594337224
 20
-21.29113104988426
 30
0.0
 10
210.2097024757931
 20
-21.39690504807693
 30
0.0
  0
SPLINE
  5
80
330
1F
100
AcDbEntity
  8
0
  6
Continuous
 62
     7
370
    25
100
AcDbSpline
210
0.0
220
0.0
230
1.0
 70
     8
 71
     3
 72
    15
 73
    11
 74
     0
 42
0.00000001
 43
0.00000001
 40
0.0
 40
0.0
 40
0.0
 40
0.0
 40
0.1335067689985201
 40
0.2625589787303705
 40
0.3882644471488858
 40
0.5126673546814289
 40
0.6337222699657545
 40
0.7553938601370865
 40
0.8775529450912763
 40
1.0
 40
1.0
 40
1.0
 40
1.0
 10
206.5367006729085
 20
-19.5823467548077
 30
0.0
 10
206.5927649232046
 20
-19.54023932814293
 30
0.0
 10
206.7030227956064
 20
-19.45742942251044
 30
0.0
 10
206.8753568728172
 20
-19.34812050763758
 30
0.0
 10
207.051768759395
 20
-19.25521321459341
 30
0.0
 10
207.232732505103
 20
-19.18238143927978
 30
0.0
 10
207.4157075615566
 20
-19.1210507294378
 30
0.0
 10
207.6030813087819
 20
-19.07979950369873
 30
0.0
 10
207.7940129776032
 20
-19.05396934494936
 30
0.0
 10
207.9225011471544
 20
-19.05132415302711
 30
0.0
 10
207.9868208652162
 20
-19.05000000000001
 30
0.0
  0
SPLINE
  5
81
330
1F
100
AcDbEntity
  8
0
  6
Continuous
 62
     7
370
    25
100
AcDbSpline
210
0.0
220
0.0
230
1.0
 70
     8
 71
     3
 72
    15
 73
    11
 74
     0
 42
0.00000001
 43
0.00000001
 40
0.0
 40
0.0
 40
0.0
 40
0.0
 40
0.1815319715023518
 40
0.3470753060162349
 40
0.4955587263078063
 40
0.629076643574722
 40
0.7455243378854629
 40
0.8458335786603268
 40
0.9307830770433553
 40
1.0
 40
1.0
 40
1.0
 40
1.0
 10
205.2411327642546
 20
-21.14313401442309
 30
0.0
 10
205.3125283297483
 20
-21.0429335065773
 30
0.0
 10
205.449031214264
 20
-20.85135776575466
 30
0.0
 10
205.651360371966
 20
-20.58323695144284
 30
0.0
 10
205.8375255521627
 20
-20.3437993793618
 30
0.0
 10
206.0049335425867
 20
-20.13182499619051
 30
0.0
 10
206.1608858317888
 20
-19.95279784771298
 30
0.0
 10
206.2970242484394
 20
-19.80017320166268
 30
0.0
 10
206.4206184289447
 20
-19.6795819587509
 30
0.0
 10
206.5007317614286
 20
-19.61247577647318
 30
0.0
 10
206.5367006729085
 20
-19.5823467548077
 30
0.0
  0
SPLINE
  5
82
330
1F
100
AcDbEntity
  8
0
  6
Continuous
 62
     7
370
    25
100
AcDbSpline
210
0.0
220
0.0
230
1.0
 70
     8
 71
     3
 72
    15
 73
    11
 74
     0
 42
0.00000001
 43
0.00000001
 40
0.0
 40
0.0
 40
0.0
 40
0.0
 40
0.0902833575110727
 40
0.1900949818423854
 40
0.2991799221090944
 40
0.4189134307321102
 40
0.5483697697636114
 40
0.6887820023551801
 40
0.8390761172936866
 40
1.0
 40
1.0
 40
1.0
 40
1.0
 10
203.7223226681008
 20
-22.86038161057694
 30
0.0
 10
203.7769901922695
 20
-22.81785588443487
 30
0.0
 10
203.8920947065531
 20
-22.7283163794622
 30
0.0
 10
204.0605660219164
 20
-22.57225146524279
 30
0.0
 10
204.2385905645461
 20
-22.39388435140439
 30
0.0
 10
204.4254454176125
 20
-22.19232333307348
 30
0.0
 10
204.6177181464462
 20
-21.96356179613612
 30
0.0
 10
204.8194166950247
 20
-21.71229707997069
 30
0.0
 10
205.029934883211
 20
-21.43722849144174
 30
0.0
 10
205.1691485060235
 20
-21.2433725806124
 30
0.0
 10
205.2411327642546
 20
-21.14313401442309
 30
0.0
  0
SPLINE
  5
83
330
1F
100
AcDbEntity
  8
0
  6
Continuous
 62
     7
370
    25
100
AcDbSpline
210
0.0
220
0.0
230
1.0
 70
     8
 71
     3
 72
    11
 73
     7
 74
     0
 42
0.00000001
 43
0.00000001
 40
0.0
 40
0.0
 40
0.0
 40
0.0
 40
0.2347233736739052
 40
0.4771583189289946
 40
0.7285562842030572
 40
1.0
 40
1.0
 40
1.0
 40
1.0
 10
202.7873767546392
 20
-23.20192307692308
 30
0.0
 10
202.8666814956288
 20
-23.19791084566286
 30
0.0
 10
203.0278964453861
 20
-23.18975456581173
 30
0.0
 10
203.265748358068
 20
-23.12081675218595
 30
0.0
 10
203.5011317093482
 20
-23.01236987327629
 30
0.0
 10
203.6467315820992
 20
-22.91232296433633
 30
0.0
 10
203.7223226681008
 20
-22.86038161057694
 30
0.0
  0
SPLINE
  5
84
330
1F
100
AcDbEntity
  8
0
  6
Continuous
 62
     7
370
    25
100
AcDbSpline
210
0.0
220
0.0
230
1.0
 70
     8
 71
     3
 72
    19
 73
    15
 74
     0
 42
0.00000001
 43
0.00000001
 40
0.0
 40
0.0
 40
0.0
 40
0.0
 40
0.0912725322324324
 40
0.1809480095492873
 40
0.2701146396541511
 40
0.3601913635843508
 40
0.4483863890206739
 40
0.5327179471022998
 40
0.613893748849001
 40
0.6940494120240711
 40
0.7727915635729882
 40
0.849174656983567
 40
0.9239598891174562
 40
0.9999999999999999
 40
0.9999999999999999
 40
0.9999999999999999
 40
0.9999999999999999
 10
201.1731640142546
 20
-21.33584735576925
 30
0.0
 10
201.1754899415374
 20
-21.41935946334548
 30
0.0
 10
201.1801010978393
 20
-21.58492241278468
 30
0.0
 10
201.2244081803266
 20
-21.82865953359318
 30
0.0
 10
201.2924767415468
 20
-22.06537477191263
 30
0.0
 10
201.3899614508597
 20
-22.2901864953105
 30
0.0
 10
201.5079018666399
 20
-22.50000314573246
 30
0.0
 10
201.650365902418
 20
-22.68396729706497
 30
0.0
 10
201.8098313488643
 20
-22.84310456270867
 30
0.0
 10
201.9878643369624
 20
-22.97292145492092
 30
0.0
 10
202.1786716215293
 20
-23.0736991499693
 30
0.0
 10
202.3762782528854
 20
-23.14662467818986
 30
0.0
 10
202.5798150233258
 20
-23.19303739089885
 30
0.0
 10
202.7178068100187
 20
-23.19894479821675
 30
0.0
 10
202.7873767546392
 20
-23.20192307692308
 30
0.0
  0
SPLINE
  5
85
330
1F
100
AcDbEntity
  8
0
  6
Continuous
 62
     7
370
    25
100
AcDbSpline
210
0.0
220
0.0
230
1.0
 70
     8
 71
     3
 72
    15
 73
    11
 74
     0
 42
0.00000001
 43
0.00000001
 40
0.0
 40
0.0
 40
0.0
 40
0.0
 40
0.1590042985173771
 40
0.3046460998968196
 40
0.4385469045795914
 40
0.5623222987759269
 40
0.6774325425257337
 40
0.7868973929387536
 40
0.8936108891042663
 40
1.0
 40
1.0
 40
1.0
 40
1.0
 10
202.7606640142546
 20
-19.24462139423078
 30
0.0
 10
202.6353030809343
 20
-19.31951031131973
 30
0.0
 10
202.3951163704392
 20
-19.46299458645806
 30
0.0
 10
202.0705641318438
 20
-19.70234792815162
 30
0.0
 10
201.7947142623782
 20
-19.95035963639602
 30
0.0
 10
201.5691714947162
 20
-20.20886632269843
 30
0.0
 10
201.3916013100674
 20
-20.47629008151718
 30
0.0
 10
201.2658652366047
 20
-20.75437668490063
 30
0.0
 10
201.1874446179156
 20
-21.04218901262247
 30
0.0
 10
201.1779193823632
 20
-21.23806062679148
 30
0.0
 10
201.1731640142546
 20
-21.33584735576924
 30
0.0
  0
SPLINE
  5
87
330
1F
100
AcDbEntity
  8
0
  6
Continuous
 62
     7
370
    25
100
AcDbSpline
210
0.0
220
0.0
230
1.0
 70
     8
 71
     3
 72
    23
 73
    19
 74
     0
 42
0.00000001
 43
0.00000001
 40
0.0
 40
0.0
 40
0.0
 40
0.0
 40
0.0572115432669865
 40
0.1137025660938856
 40
0.1686893406733771
 40
0.2241628359208737
 40
0.2787266200413275
 40
0.3338041108232176
 40
0.389254525772129
 40
0.4454091812951579
 40
0.5032947014112136
 40
0.5642689578498985
 40
0.6279541262014464
 40
0.6950208077673186
 40
0.765359298935073
 40
0.8396022646025175
 40
0.9175330310454309
 40
0.9999999999999999
 40
0.9999999999999999
 40
0.9999999999999999
 40
0.9999999999999999
 10
200.1962409373315
 20
-21.33584735576924
 30
0.0
 10
200.1976480217073
 20
-21.26390863310948
 30
0.0
 10
200.200444469681
 20
-21.12093718188049
 30
0.0
 10
200.2245811776622
 20
-20.91003273388414
 30
0.0
 10
200.2599779534395
 20
-20.70300113172266
 30
0.0
 10
200.3139452155868
 20
-20.50244190602969
 30
0.0
 10
200.3809639840151
 20
-20.30585773042323
 30
0.0
 10
200.4630187694942
 20
-20.11500089630394
 30
0.0
 10
200.5607008202494
 20
-19.92940770737836
 30
0.0
 10
200.674171929905
 20
-19.74886144209732
 30
0.0
 10
200.8049433858982
 20
-19.5716608356225
 30
0.0
 10
200.9560688538799
 20
-19.39871434458817
 30
0.0
 10
201.1265044799431
 20
-19.2280434456467
 30
0.0
 10
201.317998122254
 20
-19.06277679969583
 30
0.0
 10
201.5285038660058
 20
-18.89986811125131
 30
0.0
 10
201.759785543285
 20
-18.74234696049778
 30
0.0
 10
202.0106425567863
 20
-18.58700575399385
 30
0.0
 10
202.1871678401903
 20
-18.48953614741103
 30
0.0
 10
202.2779266344469
 20
-18.43942307692309
 30
0.0
  0
SPLINE
  5
88
330
1F
100
AcDbEntity
  8
0
  6
Continuous
 62
     7
370
    25
100
AcDbSpline
210
0.0
220
0.0
230
1.0
 70
     8
 71
     3
 72
    23
 73
    19
 74
     0
 42
0.00000001
 43
0.00000001
 40
0.0
 40
0.0
 40
0.0
 40
0.0
 40
0.0614756615275118
 40
0.1217575072466992
 40
0.18089427264282
 40
0.2402225344223208
 40
0.300072497333075
 40
0.3608488559366682
 40
0.4234788206214099
 40
0.4883234230738723
 40
0.5535990415821699
 40
0.6172173047606669
 40
0.6798657129547605
 40
0.7422234233041661
 40
0.8046905140399485
 40
0.8682774027859402
 40
0.9330296189554079
 40
1.0
 40
1.0
 40
1.0
 40
1.0
 10
202.774020384447
 20
-24.05673076923079
 30
0.0
 10
202.6886270783785
 20
-24.05494142126313
 30
0.0
 10
202.5194987465458
 20
-24.05139747325631
 30
0.0
 10
202.2711447834652
 20
-24.0106968617995
 30
0.0
 10
202.0299786105052
 20
-23.95099033021429
 30
0.0
 10
201.7987627325689
 20
-23.86128307433048
 30
0.0
 10
201.5744032903938
 20
-23.75093467531394
 30
0.0
 10
201.3589669507144
 20
-23.61463856392978
 30
0.0
 10
201.1554152906484
 20
-23.45033368942774
 30
0.0
 10
200.9595124202979
 20
-23.26771547595322
 30
0.0
 10
200.7825558075392
 20
-23.0647659443016
 30
0.0
 10
200.6242879363075
 20
-22.85077508482183
 30
0.0
 10
200.491818722303
 20
-22.6243536461907
 30
0.0
 10
200.3851806633061
 20
-22.38659753345793
 30
0.0
 10
200.3004561736994
 20
-22.13882196474151
 30
0.0
 10
200.2395579808631
 20
-21.8807661839263
 30
0.0
 10
200.2020965258262
 20
-21.61171158323516
 30
0.0
 10
200.1982145903321
 20
-21.4288286608555
 30
0.0
 10
200.1962409373315
 20
-21.33584735576924
 30
0.0
  0
CIRCLE
  5
94
330
1F
100
AcDbEntity
  8
0
  6
Continuous
 62
     7
370
    25
100
AcDbCircle
 10
141.1538360762
 20
0.0
 30
0.0
 40
14.99999999999994
  0
CIRCLE
  5
95
330
1F
100
AcDbEntity
  8
0
  6
Continuous
 62
     7
370
    25
100
AcDbCircle
 10
141.1538360762
 20
18.75
 30
0.0
 40
2.0
  0
CIRCLE
  5
96
330
1F
100
AcDbEntity
  8
0
  6
Continuous
 62
     7
370
    25
100
AcDbCircle
 10
157.3918123971
 20
9.375
 30
0.0
 40
1.999999999999943
  0
CIRCLE
  5
97
330
1F
100
AcDbEntity
  8
0
  6
Continuous
 62
     7
370
    25
100
AcDbCircle
 10
157.3918123971
 20
-9.375
 30
0.0
 40
2.0
  0
CIRCLE
  5
98
330
1F
100
AcDbEntity
  8
0
  6
Continuous
 62
     7
370
    25
100
AcDbCircle
 10
141.1538360762
 20
-18.75
 30
0.0
 40
2.0
  0
CIRCLE
  5
99
330
1F
100
AcDbEntity
  8
0
  6
Continuous
 62
     7
370
    25
100
AcDbCircle
 10
124.9158597552
 20
-9.375
 30
0.0
 40
1.999999999999957
  0
CIRCLE
  5
9A
330
1F
100
AcDbEntity
  8
0
  6
Continuous
 62
     7
370
    25
100
AcDbCircle
 10
124.9158597552
 20
9.375
 30
0.0
 40
2.0
  0
SPLINE
  5
A6
330
1F
100
AcDbEntity
  8
0
  6
Continuous
 62
     7
370
    25
100
AcDbSpline
210
0.0
220
0.0
230
1.0
 70
     8
 71
     3
 72
    23
 73
    19
 74
     0
 42
0.00000001
 43
0.00000001
 40
0.0
 40
0.0
 40
0.0
 40
0.0
 40
0.0652224643677753
 40
0.1285610333359551
 40
0.1903085914259786
 40
0.2513624206036518
 40
0.3123681819484189
 40
0.3737655552722716
 40
0.4362592488909632
 40
0.5003908724566085
 40
0.5645069415311016
 40
0.6269517965353792
 40
0.6884747030765416
 40
0.7492612758557943
 40
0.8101669345916728
 40
0.871678873165193
 40
0.9347775356322251
 40
1.0
 40
1.0
 40
1.0
 40
1.0
 10
205.2067878123316
 20
-17.4625
 30
0.0
 10
205.0354534712643
 20
-17.45828216762225
 30
0.0
 10
204.6977336358201
 20
-17.44996833136695
 30
0.0
 10
204.2020453812147
 20
-17.37874902993208
 30
0.0
 10
203.7255407794554
 20
-17.26706931628252
 30
0.0
 10
203.2690615611118
 20
-17.1075653957925
 30
0.0
 10
202.8319545480131
 20
-16.90298772425666
 30
0.0
 10
202.4163403089445
 20
-16.65049018444901
 30
0.0
 10
202.019245706787
 20
-16.35581930042309
 30
0.0
 10
201.6489808485296
 20
-16.01747451743753
 30
0.0
 10
201.3087955712817
 20
-15.64908631459937
 30
0.0
 10
201.0116995856321
 20
-15.25361025036986
 30
0.0
 10
200.7578091299102
 20
-14.83916682673473
 30
0.0
 10
200.5536538766571
 20
-14.40264788491072
 30
0.0
 10
200.3910978328504
 20
-13.94891988682911
 30
0.0
 10
200.2801628500987
 20
-13.47382443296721
 30
0.0
 10
200.2086326079521
 20
-12.97948144215359
 30
0.0
 10
200.2004168198316
 20
-12.64237602457361
 30
0.0
 10
200.1962409373315
 20
-12.47103365384615
 30
0.0
  0
SPLINE
  5
A7
330
1F
100
AcDbEntity
  8
0
  6
Continuous
 62
     7
370
    25
100
AcDbSpline
210
0.0
220
0.0
230
1.0
 70
     8
 71
     3
 72
    23
 73
    19
 74
     0
 42
0.00000001
 43
0.00000001
 40
0.0
 40
0.0
 40
0.0
 40
0.0
 40
0.0665678093466575
 40
0.1307446696927557
 40
0.1934063329837526
 40
0.254980872938435
 40
0.3161029861471731
 40
0.3772491435988236
 40
0.4393860921342695
 40
0.5031317117549493
 40
0.566683973707883
 40
0.628243533161479
 40
0.6891010063195123
 40
0.7493530500310458
 40
0.8101759406352834
 40
0.8716141172342636
 40
0.9348713618188387
 40
1.0
 40
1.0
 40
1.0
 40
1.0
 10
210.2097024757931
 20
-12.39471153846154
 30
0.0
 10
210.2052352662358
 20
-12.57108213406589
 30
0.0
 10
210.1964612981008
 20
-12.9174885351797
 30
0.0
 10
210.1292994590404
 20
-13.42660001106766
 30
0.0
 10
210.0131048855919
 20
-13.91263195878589
 30
0.0
 10
209.8583640714983
 20
-14.3795545753175
 30
0.0
 10
209.6519032246417
 20
-14.82174271429016
 30
0.0
 10
209.4024956819754
 20
-15.24267471551418
 30
0.0
 10
209.1065942805079
 20
-15.64116044359315
 30
0.0
 10
208.769164109387
 20
-16.01354729629041
 30
0.0
 10
208.4006880345447
 20
-16.35306559414155
 30
0.0
 10
208.0063240480104
 20
-16.64970039215332
 30
0.0
 10
207.5914723491474
 20
-16.90050287273068
 30
0.0
 10
207.1546893634137
 20
-17.10606808071441
 30
0.0
 10
206.697897528053
 20
-17.2674817583017
 30
0.0
 10
206.2184996084707
 20
-17.37882999268245
 30
0.0
 10
205.7196455622079
 20
-17.44996583917667
 30
0.0
 10
205.3793936026705
 20
-17.4582815422782
 30
0.0
 10
205.2067878123315
 20
-17.4625
 30
0.0
  0
SPLINE
  5
A8
330
1F
100
AcDbEntity
  8
0
  6
Continuous
 62
     7
370
    25
100
AcDbSpline
210
0.0
220
0.0
230
1.0
 70
     8
 71
     3
 72
    31
 73
    27
 74
     0
 42
0.00000001
 43
0.00000001
 40
0.0
 40
0.0
 40
0.0
 40
0.0
 40
0.0432131612190024
 40
0.0858811690558534
 40
0.1281323862311977
 40
0.1701684053065488
 40
0.2119380974268371
 40
0.253861186954993
 40
0.2960203108790418
 40
0.3385742985220581
 40
0.3811504230395508
 40
0.4228205986731564
 40
0.4642448467902097
 40
0.505120973852986
 40
0.546150250766024
 40
0.5871644538095496
 40
0.6285218300610055
 40
0.670271073628535
 40
0.7119695050210301
 40
0.7532420689310747
 40
0.7940294954327631
 40
0.8348695885959565
 40
0.8754862830134265
 40
0.9165392362530586
 40
0.9579997207801179
 40
1.0
 40
1.0
 40
1.0
 40
1.0
 10
205.1609945431008
 20
-7.44903846153846
 30
0.0
 10
205.2742953962254
 20
-7.450492099705607
 30
0.0
 10
205.4994677614698
 20
-7.453381037743397
 30
0.0
 10
205.8338328185387
 20
-7.488212345309813
 30
0.0
 10
206.1628566639067
 20
-7.53865311770793
 30
0.0
 10
206.4854332785285
 20
-7.611320785587478
 30
0.0
 10
206.8016153385173
 20
-7.705055912658574
 30
0.0
 10
207.1107562338252
 20
-7.820568555152526
 30
0.0
 10
207.4154023771381
 20
-7.952946087960907
 30
0.0
 10
207.70975581205
 20
-8.110559826327558
 30
0.0
 10
207.9942785469708
 20
-8.282521131949249
 30
0.0
 10
208.2654128621236
 20
-8.47002765817661
 30
0.0
 10
208.5183155663048
 20
-8.67438678753606
 30
0.0
 10
208.7570504003735
 20
-8.892679298202491
 30
0.0
 10
208.9775427037031
 20
-9.127926847727759
 30
0.0
 10
209.1845997163361
 20
-9.376588967587043
 30
0.0
 10
209.3760780604227
 20
-9.639966770911064
 30
0.0
 10
209.5479561634819
 20
-9.918476796164153
 30
0.0
 10
209.7058282891912
 20
-10.20501832478845
 30
0.0
 10
209.8376385223734
 20
-10.50167022937848
 30
0.0
 10
209.9541410920091
 20
-10.80217345314705
 30
0.0
 10
210.0467260870871
 20
-11.10917494607668
 30
0.0
 10
210.1204057779493
 20
-11.42196456341556
 30
0.0
 10
210.1704692657695
 20
-11.74093332600502
 30
0.0
 10
210.2053779677335
 20
-12.06575270038578
 30
0.0
 10
210.2082547710579
 20
-12.28458681189854
 30
0.0
 10
210.2097024757931
 20
-12.39471153846154
 30
0.0
  0
SPLINE
  5
A9
330
1F
100
AcDbEntity
  8
0
  6
Continuous
 62
     7
370
    25
100
AcDbSpline
210
0.0
220
0.0
230
1.0
 70
     8
 71
     3
 72
    23
 73
    19
 74
     0
 42
0.00000001
 43
0.00000001
 40
0.0
 40
0.0
 40
0.0
 40
0.0
 40
0.0658229455443629
 40
0.1297545473996803
 40
0.1920838277286563
 40
0.2534750923052665
 40
0.3145890334277565
 40
0.3760952809636915
 40
0.438844932176331
 40
0.5030902785220762
 40
0.5673200427943343
 40
0.6296819052041722
 40
0.6909805478558746
 40
0.7514362864964964
 40
0.8119927430083267
 40
0.8731418396090073
 40
0.9356315049343966
 40
1.0
 40
1.0
 40
1.0
 40
1.0
 10
200.1962409373315
 20
-12.47103365384615
 30
0.0
 10
200.2004569171457
 20
-12.29842856256001
 30
0.0
 10
200.2087677356317
 20
-11.95817798104176
 30
0.0
 10
200.2800266724935
 20
-11.45869988847112
 30
0.0
 10
200.3914157522943
 20
-10.97895485317924
 30
0.0
 10
200.5507538491043
 20
-10.52042000332324
 30
0.0
 10
200.7559043967222
 20
-10.08294486671664
 30
0.0
 10
201.0080039539078
 20
-9.666571753803014
 30
0.0
 10
201.3050686584289
 20
-9.270800326546073
 30
0.0
 10
201.6429629784408
 20
-8.89965801821125
 30
0.0
 10
202.011528224893
 20
-8.560484120233026
 30
0.0
 10
202.4044048065352
 20
-8.262161091597088
 30
0.0
 10
202.8178562419703
 20
-8.011514941719208
 30
0.0
 10
203.250178205956
 20
-7.806277790797123
 30
0.0
 10
203.7002532209869
 20
-7.643943018948918
 30
0.0
 10
204.1709124271302
 20
-7.533157504794661
 30
0.0
 10
204.659518462689
 20
-7.461488875383961
 30
0.0
 10
204.9921934911218
 20
-7.453229375196734
 30
0.0
 10
205.1609945431008
 20
-7.44903846153846
 30
0.0
  0
CIRCLE
  5
C7
330
1F
100
AcDbEntity
  8
0
  6
Continuous
 62
     7
370
    25
100
AcDbCircle
 10
9.6338360762
 20
-119.0
 30
0.0
 40
2.000000000000011
  0
CIRCLE
  5
C8
330
1F
100
AcDbEntity
  8
0
  6
Continuous
 62
     7
370
    25
100
AcDbCircle
 10
-7.3461639238
 20
151.0
 30
0.0
 40
1.999999999999977
  0
CIRCLE
  5
C9
330
1F
100
AcDbEntity
  8
0
  6
Continuous
 62
     7
370
    25
100
AcDbCircle
 10
9.6338360762
 20
119.0
 30
0.0
 40
2.000000000000001
  0
CIRCLE
  5
CA
330
1F
100
AcDbEntity
  8
0
  6
Continuous
 62
     7
370
    25
100
AcDbCircle
 10
-7.3461639238
 20
119.0
 30
0.0
 40
2.000000000000008
  0
CIRCLE
  5
CB
330
1F
100
AcDbEntity
  8
0
  6
Continuous
 62
     7
370
    25
100
AcDbCircle
 10
9.6338360762
 20
151.0
 30
0.0
 40
1.999999999999971
  0
CIRCLE
  5
CC
330
1F
100
AcDbEntity
  8
0
  6
Continuous
 62
     7
370
    25
100
AcDbCircle
 10
9.6338360762
 20
-151.0
 30
0.0
 40
1.999999999999979
  0
CIRCLE
  5
CD
330
1F
100
AcDbEntity
  8
0
  6
Continuous
 62
     7
370
    25
100
AcDbCircle
 10
-7.3461639238
 20
-151.0
 30
0.0
 40
1.99999999999997
  0
CIRCLE
  5
CE
330
1F
100
AcDbEntity
  8
0
  6
Continuous
 62
     7
370
    25
100
AcDbCircle
 10
-7.3461639238
 20
-119.0
 30
0.0
 40
2.000000000000001
  0
CIRCLE
  5
E5
330
1F
100
AcDbEntity
  8
0
  6
Continuous
 62
     7
370
    25
100
AcDbCircle
 10
134.9180982512
 20
115.8743476599
 30
0.0
 40
1.999999999994884
  0
CIRCLE
  5
E6
330
1F
100
AcDbEntity
  8
0
  6
Continuous
 62
     7
370
    25
100
AcDbCircle
 10
134.9180982512
 20
-153.8743476599
 30
0.0
 40
1.999999999994884
  0
CIRCLE
  5
E7
330
1F
100
AcDbEntity
  8
0
  6
Continuous
 62
     7
370
    25
100
AcDbCircle
 10
163.5266754328
 20
-115.8743476599
 30
0.0
 40
1.999999999994884
  0
CIRCLE
  5
E8
330
1F
100
AcDbEntity
  8
0
  6
Continuous
 62
     7
370
    25
100
AcDbCircle
 10
134.9180982512
 20
-115.8743476599
 30
0.0
 40
1.999999999994884
  0
CIRCLE
  5
E9
330
1F
100
AcDbEntity
  8
0
  6
Continuous
 62
     7
370
    25
100
AcDbCircle
 10
163.5266754328
 20
115.8743476599
 30
0.0
 40
1.999999999994913
  0
CIRCLE
  5
EA
330
1F
100
AcDbEntity
  8
0
  6
Continuous
 62
     7
370
    25
100
AcDbCircle
 10
134.9180982512
 20
153.8743476599
 30
0.0
 40
1.999999999994856
  0
CIRCLE
  5
EB
330
1F
100
AcDbEntity
  8
0
  6
Continuous
 62
     7
370
    25
100
AcDbCircle
 10
163.5266754328
 20
153.8743476599
 30
0.0
 40
1.999999999994941
  0
CIRCLE
  5
EC
330
1F
100
AcDbEntity
  8
0
  6
Continuous
 62
     7
370
    25
100
AcDbCircle
 10
163.5266754328
 20
-153.8743476599
 30
0.0
 40
1.999999999994913
  0
CIRCLE
  5
ED
330
1F
100
AcDbEntity
  8
0
  6
Continuous
 62
     7
370
    25
100
AcDbCircle
 10
263.6538360762
 20
-55.0
 30
0.0
 40
2.0
  0
CIRCLE
  5
EE
330
1F
100
AcDbEntity
  8
0
  6
Continuous
 62
     7
370
    25
100
AcDbCircle
 10
243.6538360762
 20
55.0
 30
0.0
 40
2.0
  0
CIRCLE
  5
EF
330
1F
100
AcDbEntity
  8
0
  6
Continuous
 62
     7
370
    25
100
AcDbCircle
 10
283.6538360762
 20
55.0
 30
0.0
 40
2.072318805556279
  0
CIRCLE
  5
F0
330
1F
100
AcDbEntity
  8
0
  6
Continuous
 62
     7
370
    25
100
AcDbCircle
 10
283.6538360762
 20
95.0
 30
0.0
 40
1.999999999999943
  0
CIRCLE
  5
F1
330
1F
100
AcDbEntity
  8
0
  6
Continuous
 62
     7
370
    25
100
AcDbCircle
 10
243.6538360762
 20
-55.0
 30
0.0
 40
2.0
  0
CIRCLE
  5
F2
330
1F
100
AcDbEntity
  8
0
  6
Continuous
 62
     7
370
    25
100
AcDbCircle
 10
283.6538360762
 20
-55.0
 30
0.0
 40
2.072318805556222
  0
CIRCLE
  5
F3
330
1F
100
AcDbEntity
  8
0
  6
Continuous
 62
     7
370
    25
100
AcDbCircle
 10
283.6538360762
 20
-95.0
 30
0.0
 40
2.0
  0
CIRCLE
  5
F4
330
1F
100
AcDbEntity
  8
0
  6
Continuous
 62
     7
370
    25
100
AcDbCircle
 10
263.6538360762
 20
-95.0
 30
0.0
 40
2.0
  0
CIRCLE
  5
F5
330
1F
100
AcDbEntity
  8
0
  6
Continuous
 62
     7
370
    25
100
AcDbCircle
 10
243.6538360762
 20
-95.0
 30
0.0
 40
2.000000000000057
  0
CIRCLE
  5
F6
330
1F
100
AcDbEntity
  8
0
  6
Continuous
 62
     7
370
    25
100
AcDbCircle
 10
263.6538360762
 20
55.0
 30
0.0
 40
2.0
  0
CIRCLE
  5
F7
330
1F
100
AcDbEntity
  8
0
  6
Continuous
 62
     7
370
    25
100
AcDbCircle
 10
243.6538360762
 20
95.0
 30
0.0
 40
2.000000000000057
  0
CIRCLE
  5
F8
330
1F
100
AcDbEntity
  8
0
  6
Continuous
 62
     7
370
    25
100
AcDbCircle
 10
263.6538360762
 20
95.0
 30
0.0
 40
2.0
  0
SPLINE
  5
F9
330
1F
100
AcDbEntity
  8
0
  6
Continuous
 62
     7
370
    25
100
AcDbSpline
210
0.0
220
0.0
230
1.0
 70
     8
 71
     3
 72
    23
 73
    19
 74
     0
 42
0.00000001
 43
0.00000001
 40
0.0
 40
0.0
 40
0.0
 40
0.0
 40
0.0615421181276492
 40
0.1216886652053487
 40
0.1811464728196649
 40
0.2398642890861266
 40
0.29868812052584
 40
0.3576308741826773
 40
0.4175855188952013
 40
0.4786608740971082
 40
0.5404042496433097
 40
0.6023393268059518
 40
0.6651162064720911
 40
0.7285718692799081
 40
0.7936600904972576
 40
0.8605407211299426
 40
0.9292392350475916
 40
1.0
 40
1.0
 40
1.0
 40
1.0
 10
209.6220221873316
 20
18.9889423076923
 30
0.0
 10
209.5800285769739
 20
18.87873883704845
 30
0.0
 10
209.4969936320119
 20
18.66083094483337
 30
0.0
 10
209.3403589534469
 20
18.35056768939365
 30
0.0
 10
209.1628836062563
 20
18.0584931595711
 30
0.0
 10
208.9643488319457
 20
17.78301855621492
 30
0.0
 10
208.7390765072113
 20
17.53051972510851
 30
0.0
 10
208.4968459364473
 20
17.29081690250907
 30
0.0
 10
208.2277589021711
 20
17.07467053492175
 30
0.0
 10
207.940951719781
 20
16.87340654792123
 30
0.0
 10
207.6335148577422
 20
16.69729726887901
 30
0.0
 10
207.3116878838636
 20
16.54198933955237
 30
0.0
 10
206.976072973165
 20
16.40938348534886
 30
0.0
 10
206.6242273453897
 20
16.30591439882432
 30
0.0
 10
206.2595286937054
 20
16.22043131049132
 30
0.0
 10
205.8792162582383
 20
16.16307419376344
 30
0.0
 10
205.4855071628178
 20
16.12497418386176
 30
0.0
 10
205.2183289348934
 20
16.1211640216711
 30
0.0
 10
205.0827643748316
 20
16.11923076923076
 30
0.0
  0
LINE
  5
FA
330
1F
100
AcDbEntity
  8
0
  6
Continuous
 62
     7
370
    25
100
AcDbLine
 10
209.9654717066
 20
23.9346153846
 30
0.0
 11
209.9654717066
 21
22.0112980769
 31
0.0
  0
LINE
  5
FB
330
1F
100
AcDbEntity
  8
0
  6
Continuous
 62
     7
370
    25
100
AcDbLine
 10
200.4404717066
 20
23.9346153846
 30
0.0
 11
209.9654717066
 21
23.9346153846
 31
0.0
  0
LINE
  5
FC
330
1F
100
AcDbEntity
  8
0
  6
Continuous
 62
     7
370
    25
100
AcDbLine
 10
200.4404717066
 20
20.9828575721
 30
0.0
 11
200.4404717066
 21
23.9346153846
 31
0.0
  0
LINE
  5
FD
330
1F
100
AcDbEntity
  8
0
  6
Continuous
 62
     7
370
    25
100
AcDbLine
 10
208.5973977883
 20
-23.9346153846
 30
0.0
 11
208.0116255527
 21
-23.1618539663
 31
0.0
  0
LINE
  5
FE
330
1F
100
AcDbEntity
  8
0
  6
Continuous
 62
     7
370
    25
100
AcDbLine
 10
202.2779266344
 20
-18.4394230769
 30
0.0
 11
202.7606640143
 21
-19.2446213942
 31
0.0
  0
LINE
  5
FF
330
1F
100
AcDbEntity
  8
0
  6
Continuous
 62
     7
370
    25
100
AcDbLine
 10
241.4699392848
 20
89.2857091747
 30
0.0
 11
183.4699392848
 21
89.2857091747
 31
0.0
  0
LINE
  5
100
330
1F
100
AcDbEntity
  8
0
  6
Continuous
 62
     7
370
    25
100
AcDbLine
 10
184.0151444297
 20
105.564567717
 30
0.0
 11
241.4699392848
 21
89.2857091747
 31
0.0
  0
LINE
  5
101
330
1F
100
AcDbEntity
  8
0
  6
Continuous
 62
     7
370
    25
100
AcDbLine
 10
181.4699392848
 20
91.2857091747
 30
0.0
 11
181.4699392848
 21
103.6403142644
 31
0.0
  0
LINE
  5
102
330
1F
100
AcDbEntity
  8
0
  6
Continuous
 62
     7
370
    25
100
AcDbLine
 10
156.3160052367
 20
51.1031040812
 30
0.0
 11
115.5366398333
 21
75.5707233233
 31
0.0
  0
LINE
  5
103
330
1F
100
AcDbEntity
  8
0
  6
Continuous
 62
     7
370
    25
100
AcDbLine
 10
159.3449967476
 20
77.2857091747
 30
0.0
 11
159.3449967476
 21
52.8180899327
 31
0.0
  0
LINE
  5
104
330
1F
100
AcDbEntity
  8
0
  6
Continuous
 62
     7
370
    25
100
AcDbLine
 10
116.5656313442
 20
79.2857091747
 30
0.0
 11
157.3449967476
 21
79.2857091747
 31
0.0
  0
LINE
  5
105
330
1F
100
AcDbEntity
  8
0
  6
Continuous
 62
     7
370
    25
100
AcDbLine
 10
241.4699392848
 20
-89.2857091747
 30
0.0
 11
183.4699392848
 21
-89.2857091747
 31
0.0
  0
LINE
  5
106
330
1F
100
AcDbEntity
  8
0
  6
Continuous
 62
     7
370
    25
100
AcDbLine
 10
181.4699392848
 20
-91.2857091747
 30
0.0
 11
181.4699392848
 21
-103.6403142644
 31
0.0
  0
LINE
  5
107
330
1F
100
AcDbEntity
  8
0
  6
Continuous
 62
     7
370
    25
100
AcDbLine
 10
184.0151444297
 20
-105.564567717
 30
0.0
 11
241.4699392848
 21
-89.2857091747
 31
0.0
  0
LINE
  5
108
330
1F
100
AcDbEntity
  8
0
  6
Continuous
 62
     7
370
    25
100
AcDbLine
 10
156.3160052367
 20
-51.1031040812
 30
0.0
 11
115.5366398333
 21
-75.5707233233
 31
0.0
  0
LINE
  5
109
330
1F
100
AcDbEntity
  8
0
  6
Continuous
 62
     7
370
    25
100
AcDbLine
 10
116.5656313442
 20
-79.2857091747
 30
0.0
 11
157.3449967476
 21
-79.2857091747
 31
0.0
  0
LINE
  5
10A
330
1F
100
AcDbEntity
  8
0
  6
Continuous
 62
     7
370
    25
100
AcDbLine
 10
159.3449967476
 20
-77.2857091747
 30
0.0
 11
159.3449967476
 21
-52.8180899327
 31
0.0
  0
LINE
  5
10B
330
1F
100
AcDbEntity
  8
0
  6
Continuous
 62
     7
370
    25
100
AcDbLine
 10
200.4404717066
 20
-0.5819561298
 30
0.0
 11
207.3094620912
 21
2.8697115385
 31
0.0
  0
LINE
  5
10C
330
1F
100
AcDbEntity
  8
0
  6
Continuous
 62
     7
370
    25
100
AcDbLine
 10
200.4404717066
 20
-0.776577524
 30
0.0
 11
200.4404717066
 21
-0.5819561298
 31
0.0
  0
LINE
  5
10D
330
1F
100
AcDbEntity
  8
0
  6
Continuous
 62
     7
370
    25
100
AcDbLine
 10
207.2884735094
 20
-4.2129807692
 30
0.0
 11
200.4404717066
 21
-0.776577524
 31
0.0
  0
LINE
  5
10E
330
1F
100
AcDbEntity
  8
0
  6
Continuous
 62
     7
370
    25
100
AcDbLine
 10
200.4404717066
 20
-5.1288461538
 30
0.0
 11
207.2884735094
 21
-4.2129807692
 31
0.0
  0
LINE
  5
10F
330
1F
100
AcDbEntity
  8
0
  6
Continuous
 62
     7
370
    25
100
AcDbLine
 10
200.4404717066
 20
-5.9836538462
 30
0.0
 11
200.4404717066
 21
-5.1288461538
 31
0.0
  0
LINE
  5
110
330
1F
100
AcDbEntity
  8
0
  6
Continuous
 62
     7
370
    25
100
AcDbLine
 10
209.9654717066
 20
-4.7147986779
 30
0.0
 11
200.4404717066
 21
-5.9836538462
 31
0.0
  0
LINE
  5
111
330
1F
100
AcDbEntity
  8
0
  6
Continuous
 62
     7
370
    25
100
AcDbLine
 10
209.9654717066
 20
-4.5926832933
 30
0.0
 11
209.9654717066
 21
-4.7147986779
 31
0.0
  0
LINE
  5
112
330
1F
100
AcDbEntity
  8
0
  6
Continuous
 62
     7
370
    25
100
AcDbLine
 10
202.1500870912
 20
-0.6716346154
 30
0.0
 11
209.9654717066
 21
-4.5926832933
 31
0.0
  0
LINE
  5
113
330
1F
100
AcDbEntity
  8
0
  6
Continuous
 62
     7
370
    25
100
AcDbLine
 10
209.9654717066
 20
3.2608623798
 30
0.0
 11
202.1500870912
 21
-0.6716346154
 31
0.0
  0
LINE
  5
114
330
1F
100
AcDbEntity
  8
0
  6
Continuous
 62
     7
370
    25
100
AcDbLine
 10
209.9654717066
 20
3.3829777644
 30
0.0
 11
209.9654717066
 21
3.2608623798
 31
0.0
  0
LINE
  5
115
330
1F
100
AcDbEntity
  8
0
  6
Continuous
 62
     7
370
    25
100
AcDbLine
 10
200.4404717066
 20
4.6403846154
 30
0.0
 11
209.9654717066
 21
3.3829777644
 31
0.0
  0
LINE
  5
116
330
1F
100
AcDbEntity
  8
0
  6
Continuous
 62
     7
370
    25
100
AcDbLine
 10
200.4404717066
 20
3.7798527644
 30
0.0
 11
200.4404717066
 21
4.6403846154
 31
0.0
  0
LINE
  5
117
330
1F
100
AcDbEntity
  8
0
  6
Continuous
 62
     7
370
    25
100
AcDbLine
 10
207.3094620912
 20
2.8697115385
 30
0.0
 11
200.4404717066
 21
3.7798527644
 31
0.0
  0
LINE
  5
118
330
1F
100
AcDbEntity
  8
0
  6
Continuous
 62
     7
370
    25
100
AcDbLine
 10
209.9654717066
 20
6.2278846154
 30
0.0
 11
200.4404717066
 21
6.2278846154
 31
0.0
  0
LINE
  5
119
330
1F
100
AcDbEntity
  8
0
  6
Continuous
 62
     7
370
    25
100
AcDbLine
 10
209.9654717066
 20
7.0826923077
 30
0.0
 11
209.9654717066
 21
6.2278846154
 31
0.0
  0
LINE
  5
11A
330
1F
100
AcDbEntity
  8
0
  6
Continuous
 62
     7
370
    25
100
AcDbLine
 10
200.4404717066
 20
7.0826923077
 30
0.0
 11
209.9654717066
 21
7.0826923077
 31
0.0
  0
LINE
  5
11B
330
1F
100
AcDbEntity
  8
0
  6
Continuous
 62
     7
370
    25
100
AcDbLine
 10
200.4404717066
 20
6.2278846154
 30
0.0
 11
200.4404717066
 21
7.0826923077
 31
0.0
  0
LINE
  5
11C
330
1F
100
AcDbEntity
  8
0
  6
Continuous
 62
     7
370
    25
100
AcDbLine
 10
201.4173947835
 20
8.7923076923
 30
0.0
 11
200.4404717066
 21
8.7923076923
 31
0.0
  0
LINE
  5
11D
330
1F
100
AcDbEntity
  8
0
  6
Continuous
 62
     7
370
    25
100
AcDbLine
 10
201.4173947835
 20
13.3105769231
 30
0.0
 11
201.4173947835
 21
8.7923076923
 31
0.0
  0
LINE
  5
11E
330
1F
100
AcDbEntity
  8
0
  6
Continuous
 62
     7
370
    25
100
AcDbLine
 10
205.0808563219
 20
13.3105769231
 30
0.0
 11
201.4173947835
 21
13.3105769231
 31
0.0
  0
LINE
  5
11F
330
1F
100
AcDbEntity
  8
0
  6
Continuous
 62
     7
370
    25
100
AcDbLine
 10
205.0808563219
 20
8.7923076923
 30
0.0
 11
205.0808563219
 21
13.3105769231
 31
0.0
  0
LINE
  5
120
330
1F
100
AcDbEntity
  8
0
  6
Continuous
 62
     7
370
    25
100
AcDbLine
 10
206.0577793989
 20
8.7923076923
 30
0.0
 11
205.0808563219
 21
8.7923076923
 31
0.0
  0
LINE
  5
121
330
1F
100
AcDbEntity
  8
0
  6
Continuous
 62
     7
370
    25
100
AcDbLine
 10
206.0577793989
 20
13.3105769231
 30
0.0
 11
206.0577793989
 21
8.7923076923
 31
0.0
  0
LINE
  5
122
330
1F
100
AcDbEntity
  8
0
  6
Continuous
 62
     7
370
    25
100
AcDbLine
 10
208.9885486296
 20
13.3105769231
 30
0.0
 11
206.0577793989
 21
13.3105769231
 31
0.0
  0
LINE
  5
123
330
1F
100
AcDbEntity
  8
0
  6
Continuous
 62
     7
370
    25
100
AcDbLine
 10
208.9885486296
 20
8.7923076923
 30
0.0
 11
208.9885486296
 21
13.3105769231
 31
0.0
  0
LINE
  5
124
330
1F
100
AcDbEntity
  8
0
  6
Continuous
 62
     7
370
    25
100
AcDbLine
 10
209.9654717066
 20
8.7923076923
 30
0.0
 11
208.9885486296
 21
8.7923076923
 31
0.0
  0
LINE
  5
125
330
1F
100
AcDbEntity
  8
0
  6
Continuous
 62
     7
370
    25
100
AcDbLine
 10
209.9654717066
 20
14.1653846154
 30
0.0
 11
209.9654717066
 21
8.7923076923
 31
0.0
  0
LINE
  5
126
330
1F
100
AcDbEntity
  8
0
  6
Continuous
 62
     7
370
    25
100
AcDbLine
 10
200.4404717066
 20
14.1653846154
 30
0.0
 11
209.9654717066
 21
14.1653846154
 31
0.0
  0
LINE
  5
127
330
1F
100
AcDbEntity
  8
0
  6
Continuous
 62
     7
370
    25
100
AcDbLine
 10
200.4404717066
 20
8.7923076923
 30
0.0
 11
200.4404717066
 21
14.1653846154
 31
0.0
  0
LINE
  5
128
330
1F
100
AcDbEntity
  8
0
  6
Continuous
 62
     7
370
    25
100
AcDbLine
 10
-21.3461639238
 20
150.0
 30
0.0
 11
-21.3461639238
 21
77.2977633458
 31
0.0
  0
LINE
  5
129
330
1F
100
AcDbEntity
  8
0
  6
Continuous
 62
     7
370
    25
100
AcDbLine
 10
-11.3461639238
 20
160.0
 30
0.0
 11
263.6538360762
 21
160.0
 31
0.0
  0
LINE
  5
12A
330
1F
100
AcDbEntity
  8
0
  6
Continuous
 62
     7
370
    25
100
AcDbLine
 10
303.6538360762
 20
120.0
 30
0.0
 11
303.6538360762
 21
55.0
 31
0.0
  0
LINE
  5
12B
330
1F
100
AcDbEntity
  8
0
  6
Continuous
 62
     7
370
    25
100
AcDbLine
 10
233.6538360762
 20
45.0
 30
0.0
 11
293.6538360762
 21
45.0
 31
0.0
  0
LINE
  5
12C
330
1F
100
AcDbEntity
  8
0
  6
Continuous
 62
     7
370
    25
100
AcDbLine
 10
223.6538360762
 20
-35.0
 30
0.0
 11
223.6538360762
 21
35.0
 31
0.0
  0
LINE
  5
12D
330
1F
100
AcDbEntity
  8
0
  6
Continuous
 62
     7
370
    25
100
AcDbLine
 10
293.6538360762
 20
-45.0
 30
0.0
 11
233.6538360762
 21
-45.0
 31
0.0
  0
LINE
  5
12E
330
1F
100
AcDbEntity
  8
0
  6
Continuous
 62
     7
370
    25
100
AcDbLine
 10
303.6538360762
 20
-55.0
 30
0.0
 11
303.6538360762
 21
-120.0
 31
0.0
  0
LINE
  5
12F
330
1F
100
AcDbEntity
  8
0
  6
Continuous
 62
     7
370
    25
100
AcDbLine
 10
-11.3461639238
 20
-160.0
 30
0.0
 11
263.6538360762
 21
-160.0
 31
0.0
  0
LINE
  5
130
330
1F
100
AcDbEntity
  8
0
  6
Continuous
 62
     7
370
    25
100
AcDbLine
 10
-21.3461639238
 20
-77.2977633458
 30
0.0
 11
-21.3461639238
 21
-150.0
 31
0.0
  0
LINE
  5
131
330
1F
100
AcDbEntity
  8
0
  6
Continuous
 62
     7
370
    25
100
AcDbLine
 10
-21.3461639238
 20
-77.2977633458
 30
0.0
 11
75.1567622889
 21
-77.2977633458
 31
0.0
  0
LINE
  5
132
330
1F
100
AcDbEntity
  8
0
  6
Continuous
 62
     7
370
    25
100
AcDbLine
 10
85.1567622889
 20
-67.2977633458
 30
0.0
 11
85.1567622889
 21
67.2977633458
 31
0.0
  0
LINE
  5
133
330
1F
100
AcDbEntity
  8
0
  6
Continuous
 62
     7
370
    25
100
AcDbLine
 10
75.1567622889
 20
77.2977633458
 30
0.0
 11
-21.3461639238
 21
77.2977633458
 31
0.0
  0
ARC
  5
134
330
1F
100
AcDbEntity
  8
0
  6
Continuous
 62
     7
370
    25
100
AcDbCircle
 10
183.4699392848
 20
91.2857091747
 30
0.0
 40
2.0
100
AcDbArc
 50
180.0
 51
270.0
  0
ARC
  5
135
330
1F
100
AcDbEntity
  8
0
  6
Continuous
 62
     7
370
    25
100
AcDbCircle
 10
183.4699392848
 20
103.6403142644
 30
0.0
 40
1.999999999999977
100
AcDbArc
 50
74.1808060525
 51
180.0
  0
ARC
  5
136
330
1F
100
AcDbEntity
  8
0
  6
Continuous
 62
     7
370
    25
100
AcDbCircle
 10
116.5656313442
 20
77.2857091747
 30
0.0
 40
2.000000000000016
100
AcDbArc
 50
90.0
 51
239.0362434679
  0
ARC
  5
137
330
1F
100
AcDbEntity
  8
0
  6
Continuous
 62
     7
370
    25
100
AcDbCircle
 10
157.3449967476
 20
52.8180899327
 30
0.0
 40
2.000000000000034
100
AcDbArc
 50
239.0362434679
 51
0.0
  0
ARC
  5
138
330
1F
100
AcDbEntity
  8
0
  6
Continuous
 62
     7
370
    25
100
AcDbCircle
 10
157.3449967476
 20
77.2857091747
 30
0.0
 40
1.999999999999972
100
AcDbArc
 50
0.0
 51
90.0
  0
ARC
  5
139
330
1F
100
AcDbEntity
  8
0
  6
Continuous
 62
     7
370
    25
100
AcDbCircle
 10
183.4699392848
 20
-91.2857091747
 30
0.0
 40
2.0
100
AcDbArc
 50
90.0
 51
180.0
  0
ARC
  5
13A
330
1F
100
AcDbEntity
  8
0
  6
Continuous
 62
     7
370
    25
100
AcDbCircle
 10
183.4699392848
 20
-103.6403142644
 30
0.0
 40
2.000000000000028
100
AcDbArc
 50
180.0
 51
285.8191939475
  0
ARC
  5
13B
330
1F
100
AcDbEntity
  8
0
  6
Continuous
 62
     7
370
    25
100
AcDbCircle
 10
157.3449967476
 20
-52.8180899327
 30
0.0
 40
2.0
100
AcDbArc
 50
0.0
 51
120.9637565321
  0
ARC
  5
13C
330
1F
100
AcDbEntity
  8
0
  6
Continuous
 62
     7
370
    25
100
AcDbCircle
 10
116.5656313442
 20
-77.2857091747
 30
0.0
 40
2.000000000000014
100
AcDbArc
 50
120.9637565321
 51
270.0
  0
ARC
  5
13D
330
1F
100
AcDbEntity
  8
0
  6
Continuous
 62
     7
370
    25
100
AcDbCircle
 10
157.3449967476
 20
-77.2857091747
 30
0.0
 40
1.999999999999972
100
AcDbArc
 50
270.0
 51
0.0
  0
ARC
  5
13E
330
1F
100
AcDbEntity
  8
0
  6
Continuous
 62
     7
370
    25
100
AcDbCircle
 10
-11.3461639238
 20
150.0
 30
0.0
 40
10.0
100
AcDbArc
 50
90.0
 51
180.0
  0
ARC
  5
13F
330
1F
100
AcDbEntity
  8
0
  6
Continuous
 62
     7
370
    25
100
AcDbCircle
 10
263.6538360762
 20
120.0
 30
0.0
 40
40.00000000000018
100
AcDbArc
 50
0.0
 51
90.0
  0
ARC
  5
140
330
1F
100
AcDbEntity
  8
0
  6
Continuous
 62
     7
370
    25
100
AcDbCircle
 10
293.6538360762
 20
55.0
 30
0.0
 40
10.00000000000006
100
AcDbArc
 50
270.0
 51
0.0
  0
ARC
  5
141
330
1F
100
AcDbEntity
  8
0
  6
Continuous
 62
     7
370
    25
100
AcDbCircle
 10
233.6538360762
 20
35.0
 30
0.0
 40
10.00000000000006
100
AcDbArc
 50
90.0
 51
180.0
  0
ARC
  5
142
330
1F
100
AcDbEntity
  8
0
  6
Continuous
 62
     7
370
    25
100
AcDbCircle
 10
233.6538360762
 20
-35.0
 30
0.0
 40
10.00000000000009
100
AcDbArc
 50
180.0
 51
270.0
  0
ARC
  5
143
330
1F
100
AcDbEntity
  8
0
  6
Continuous
 62
     7
370
    25
100
AcDbCircle
 10
293.6538360762
 20
-55.0
 30
0.0
 40
10.00000000000002
100
AcDbArc
 50
0.0
 51
90.0
  0
ARC
  5
144
330
1F
100
AcDbEntity
  8
0
  6
Continuous
 62
     7
370
    25
100
AcDbCircle
 10
263.6538360762
 20
-120.0
 30
0.0
 40
40.00000000000007
100
AcDbArc
 50
270.0
 51
0.0
  0
ARC
  5
145
330
1F
100
AcDbEntity
  8
0
  6
Continuous
 62
     7
370
    25
100
AcDbCircle
 10
-11.3461639238
 20
-150.0
 30
0.0
 40
10.00000000000003
100
AcDbArc
 50
180.0
 51
270.0
  0
ARC
  5
146
330
1F
100
AcDbEntity
  8
0
  6
Continuous
 62
     7
370
    25
100
AcDbCircle
 10
75.1567622889
 20
-67.2977633458
 30
0.0
 40
10.0
100
AcDbArc
 50
270.0
 51
0.0
  0
ARC
  5
147
330
1F
100
AcDbEntity
  8
0
  6
Continuous
 62
     7
370
    25
100
AcDbCircle
 10
75.1567622889
 20
67.2977633458
 30
0.0
 40
9.999999999999986
100
AcDbArc
 50
0.0
 51
90.0
  0
ENDSEC
  0
SECTION
  2
OBJECTS
  0
DICTIONARY
  5
C
330
0
100
AcDbDictionary
281
     1
  3
ACAD_GROUP
350
D
  3
ACAD_LAYOUT
350
1A
  3
ACAD_MLINESTYLE
350
17
  3
ACAD_PLOTSETTINGS
350
19
  3
ACAD_PLOTSTYLENAME
350
E
  3
ACAD_SCALELIST
350
47
  3
DWGPROPS
350
148
  0
DICTIONARY
  5
D
102
{ACAD_REACTORS
330
C
102
}
330
C
100
AcDbDictionary
281
     1
  0
DICTIONARY
  5
1A
102
{ACAD_REACTORS
330
C
102
}
330
C
100
AcDbDictionary
281
     1
  3
Layout1
350
1E
  3
Layout2
350
26
  3
Model
350
22
  0
DICTIONARY
  5
17
102
{ACAD_REACTORS
330
C
102
}
330
C
100
AcDbDictionary
281
     1
  3
Standard
350
18
  0
DICTIONARY
  5
19
102
{ACAD_REACTORS
330
C
102
}
330
C
100
AcDbDictionary
281
     1
  0
ACDBDICTIONARYWDFLT
  5
E
102
{ACAD_REACTORS
330
C
102
}
330
C
100
AcDbDictionary
281
     1
  3
Normal
350
F
100
AcDbDictionaryWithDefault
340
F
  0
DICTIONARY
  5
47
102
{ACAD_REACTORS
330
C
102
}
330
C
100
AcDbDictionary
281
     1
  3
A0
350
48
  3
A1
350
49
  3
A2
350
4A
  3
A3
350
4B
  3
A4
350
4C
  3
A5
350
4D
  3
A6
350
4E
  3
A7
350
4F
  3
A8
350
50
  3
A9
350
51
  3
B0
350
52
  3
B1
350
53
  3
B2
350
54
  3
B3
350
55
  3
B4
350
56
  3
B5
350
57
  3
B6
350
58
  3
B7
350
59
  3
B8
350
5A
  3
B9
350
5B
  3
C0
350
5C
  3
C1
350
5D
  3
C2
350
5E
  3
C3
350
5F
  3
C4
350
60
  3
C5
350
61
  3
C6
350
62
  3
C7
350
63
  3
C8
350
64
  3
C9
350
65
  3
D0
350
66
  3
D1
350
67
  3
D2
350
68
  0
XRECORD
  5
148
102
{ACAD_REACTORS
330
C
102
}
330
C
100
AcDbXrecord
280
     1
  1
DWGPROPS COOKIE
  2

  3

  4

  6

  7

  8
mitta
  9

300
=
301
=
302
=
303
=
304
=
305
=
306
=
307
=
308
=
309
=
 40
0.0
 41
2461041.51417375
 42
2461041.514259907
  1

 90
        0
  0
LAYOUT
  5
1E
102
{ACAD_REACTORS
330
1A
102
}
330
1A
100
AcDbPlotSettings
  1

  2
none_device
  4

  6

 40
0.0
 41
0.0
 42
0.0
 43
0.0
 44
0.0
 45
0.0
 46
0.0
 47
0.0
 48
0.0
 49
0.0
140
0.0
141
0.0
142
1.0
143
1.0
 70
   688
 72
     1
 73
     0
 74
     5
  7

 75
    16
147
1.0
148
0.0
149
0.0
100
AcDbLayout
  1
Layout1
 70
     1
 71
     1
 10
0.0
 20
0.0
 11
420.0
 21
297.0
 12
0.0
 22
0.0
 32
0.0
 14
1.0000000000E+20
 24
1.0000000000E+20
 34
1.0000000000E+20
 15
-1.0000000000E+20
 25
-1.0000000000E+20
 35
-1.0000000000E+20
146
0.0
 13
0.0
 23
0.0
 33
0.0
 16
1.0
 26
0.0
 36
0.0
 17
0.0
 27
1.0
 37
0.0
 76
     0
330
1B
  0
LAYOUT
  5
26
102
{ACAD_REACTORS
330
1A
102
}
330
1A
100
AcDbPlotSettings
  1

  2
none_device
  4

  6

 40
0.0
 41
0.0
 42
0.0
 43
0.0
 44
0.0
 45
0.0
 46
0.0
 47
0.0
 48
0.0
 49
0.0
140
0.0
141
0.0
142
1.0
143
1.0
 70
   688
 72
     1
 73
     0
 74
     5
  7

 75
    16
147
1.0
148
0.0
149
0.0
100
AcDbLayout
  1
Layout2
 70
     1
 71
     2
 10
0.0
 20
0.0
 11
0.0
 21
0.0
 12
0.0
 22
0.0
 32
0.0
 14
0.0
 24
0.0
 34
0.0
 15
0.0
 25
0.0
 35
0.0
146
0.0
 13
0.0
 23
0.0
 33
0.0
 16
1.0
 26
0.0
 36
0.0
 17
0.0
 27
1.0
 37
0.0
 76
     0
330
23
  0
LAYOUT
  5
22
102
{ACAD_REACTORS
330
1A
102
}
330
1A
100
AcDbPlotSettings
  1

  2
none_device
  4
ANSI_A_(11.00_x_8.50_Inches)
  6

 40
6.35
 41
19.05
 42
6.35000508
 43
19.05000254
 44
279.4
 45
215.9
 46
39.0676159701
 47
88.89999873
 48
0.0
 49
0.0
140
0.0
141
0.0
142
0.026296875
143
1.0
 70
  1696
 72
     0
 73
     0
 74
     0
  7

 75
     0
147
0.0179189148
148
-1300.4909072572
149
0.0
100
AcDbLayout
  1
Model
 70
     1
 71
     0
 10
0.0
 20
0.0
 11
420.0
 21
297.0
 12
0.0
 22
0.0
 32
0.0
 14
-21.3461639238
 24
-160.0
 34
0.0
 15
303.6538360762
 25
160.0
 35
0.0
146
0.0
 13
0.0
 23
0.0
 33
0.0
 16
1.0
 26
0.0
 36
0.0
 17
0.0
 27
1.0
 37
0.0
 76
     0
330
1F
331
29
  0
MLINESTYLE
  5
18
102
{ACAD_REACTORS
330
17
102
}
330
17
100
AcDbMlineStyle
  2
Standard
 70
     0
  3

 62
   256
 51
90.0
 52
90.0
 71
     2
 49
0.5
 62
   256
  6
BYLAYER
 49
-0.5
 62
   256
  6
BYLAYER
  0
ACDBPLACEHOLDER
  5
F
102
{ACAD_REACTORS
330
E
102
}
330
E
  0
SCALE
  5
48
102
{ACAD_REACTORS
330
47
102
}
330
47
100
AcDbScale
 70
     0
300
1:1
140
1.0
141
1.0
290
     1
  0
SCALE
  5
49
102
{ACAD_REACTORS
330
47
102
}
330
47
100
AcDbScale
 70
     0
300
1:2
140
1.0
141
2.0
290
     0
  0
SCALE
  5
4A
102
{ACAD_REACTORS
330
47
102
}
330
47
100
AcDbScale
 70
     0
300
1:4
140
1.0
141
4.0
290
     0
  0
SCALE
  5
4B
102
{ACAD_REACTORS
330
47
102
}
330
47
100
AcDbScale
 70
     0
300
1:5
140
1.0
141
5.0
290
     0
  0
SCALE
  5
4C
102
{ACAD_REACTORS
330
47
102
}
330
47
100
AcDbScale
 70
     0
300
1:8
140
1.0
141
8.0
290
     0
  0
SCALE
  5
4D
102
{ACAD_REACTORS
330
47
102
}
330
47
100
AcDbScale
 70
     0
300
1:10
140
1.0
141
10.0
290
     0
  0
SCALE
  5
4E
102
{ACAD_REACTORS
330
47
102
}
330
47
100
AcDbScale
 70
     0
300
1:16
140
1.0
141
16.0
290
     0
  0
SCALE
  5
4F
102
{ACAD_REACTORS
330
47
102
}
330
47
100
AcDbScale
 70
     0
300
1:20
140
1.0
141
20.0
290
     0
  0
SCALE
  5
50
102
{ACAD_REACTORS
330
47
102
}
330
47
100
AcDbScale
 70
     0
300
1:30
140
1.0
141
30.0
290
     0
  0
SCALE
  5
51
102
{ACAD_REACTORS
330
47
102
}
330
47
100
AcDbScale
 70
     0
300
1:40
140
1.0
141
40.0
290
     0
  0
SCALE
  5
52
102
{ACAD_REACTORS
330
47
102
}
330
47
100
AcDbScale
 70
     0
300
1:50
140
1.0
141
50.0
290
     0
  0
SCALE
  5
53
102
{ACAD_REACTORS
330
47
102
}
330
47
100
AcDbScale
 70
     0
300
1:100
140
1.0
141
100.0
290
     0
  0
SCALE
  5
54
102
{ACAD_REACTORS
330
47
102
}
330
47
100
AcDbScale
 70
     0
300
2:1
140
2.0
141
1.0
290
     0
  0
SCALE
  5
55
102
{ACAD_REACTORS
330
47
102
}
330
47
100
AcDbScale
 70
     0
300
4:1
140
4.0
141
1.0
290
     0
  0
SCALE
  5
56
102
{ACAD_REACTORS
330
47
102
}
330
47
100
AcDbScale
 70
     0
300
8:1
140
8.0
141
1.0
290
     0
  0
SCALE
  5
57
102
{ACAD_REACTORS
330
47
102
}
330
47
100
AcDbScale
 70
     0
300
10:1
140
10.0
141
1.0
290
     0
  0
SCALE
  5
58
102
{ACAD_REACTORS
330
47
102
}
330
47
100
AcDbScale
 70
     0
300
100:1
140
100.0
141
1.0
290
     0
  0
SCALE
  5
59
102
{ACAD_REACTORS
330
47
102
}
330
47
100
AcDbScale
 70
     0
300
1/128" = 1'-0"
140
0.0078125
141
12.0
290
     0
  0
SCALE
  5
5A
102
{ACAD_REACTORS
330
47
102
}
330
47
100
AcDbScale
 70
     0
300
1/64" = 1'-0"
140
0.015625
141
12.0
290
     0
  0
SCALE
  5
5B
102
{ACAD_REACTORS
330
47
102
}
330
47
100
AcDbScale
 70
     0
300
1/32" = 1'-0"
140
0.03125
141
12.0
290
     0
  0
SCALE
  5
5C
102
{ACAD_REACTORS
330
47
102
}
330
47
100
AcDbScale
 70
     0
300
1/16" = 1'-0"
140
0.0625
141
12.0
290
     0
  0
SCALE
  5
5D
102
{ACAD_REACTORS
330
47
102
}
330
47
100
AcDbScale
 70
     0
300
3/32" = 1'-0"
140
0.09375
141
12.0
290
     0
  0
SCALE
  5
5E
102
{ACAD_REACTORS
330
47
102
}
330
47
100
AcDbScale
 70
     0
300
1/8" = 1'-0"
140
0.125
141
12.0
290
     0
  0
SCALE
  5
5F
102
{ACAD_REACTORS
330
47
102
}
330
47
100
AcDbScale
 70
     0
300
3/16" = 1'-0"
140
0.1875
141
12.0
290
     0
  0
SCALE
  5
60
102
{ACAD_REACTORS
330
47
102
}
330
47
100
AcDbScale
 70
     0
300
1/4" = 1'-0"
140
0.25
141
12.0
290
     0
  0
SCALE
  5
61
102
{ACAD_REACTORS
330
47
102
}
330
47
100
AcDbScale
 70
     0
300
3/8" = 1'-0"
140
0.375
141
12.0
290
     0
  0
SCALE
  5
62
102
{ACAD_REACTORS
330
47
102
}
330
47
100
AcDbScale
 70
     0
300
1/2" = 1'-0"
140
0.5
141
12.0
290
     0
  0
SCALE
  5
63
102
{ACAD_REACTORS
330
47
102
}
330
47
100
AcDbScale
 70
     0
300
3/4" = 1'-0"
140
0.75
141
12.0
290
     0
  0
SCALE
  5
64
102
{ACAD_REACTORS
330
47
102
}
330
47
100
AcDbScale
 70
     0
300
1" = 1'-0"
140
1.0
141
12.0
290
     0
  0
SCALE
  5
65
102
{ACAD_REACTORS
330
47
102
}
330
47
100
AcDbScale
 70
     0
300
1-1/2" = 1'-0"
140
1.5
141
12.0
290
     0
  0
SCALE
  5
66
102
{ACAD_REACTORS
330
47
102
}
330
47
100
AcDbScale
 70
     0
300
3" = 1'-0"
140
3.0
141
12.0
290
     0
  0
SCALE
  5
67
102
{ACAD_REACTORS
330
47
102
}
330
47
100
AcDbScale
 70
     0
300
6" = 1'-0"
140
6.0
141
12.0
290
     0
  0
SCALE
  5
68
102
{ACAD_REACTORS
330
47
102
}
330
47
100
AcDbScale
 70
     0
300
1'-0" = 1'-0"
140
12.0
141
12.0
290
     0
  0
ENDSEC
  0
EOF
